<?xml version="1.0" encoding="UTF-8" standalone="no"?>
<!DOCTYPE svg PUBLIC "-//W3C//DTD SVG 1.1//EN"
 "http://www.w3.org/Graphics/SVG/1.1/DTD/svg11.dtd">
<!-- Generated by graphviz version 2.30.1 (20180223.0356)
 -->
<!-- Title: D Pages: 1 -->
<svg width="598pt" height="315pt"
 viewBox="0.00 0.00 598.00 315.00" xmlns="http://www.w3.org/2000/svg" xmlns:xlink="http://www.w3.org/1999/xlink">
<g id="graph0" class="graph" transform="scale(1 1) rotate(0) translate(4 311)">
<title>D</title>
<polygon fill="white" stroke="white" points="-4,5 -4,-311 595,-311 595,5 -4,5"/>
<g id="clust1" class="cluster"><title>cluster_before</title>
<polygon fill="none" stroke="black" points="8,-8 8,-299 194,-299 194,-8 8,-8"/>
<text text-anchor="middle" x="101" y="-283.8" font-family="Times,serif" font-size="14.00">Before GC</text>
</g>
<g id="clust2" class="cluster"><title>cluster_gc_1</title>
<polygon fill="none" stroke="black" points="202,-8 202,-299 388,-299 388,-8 202,-8"/>
<text text-anchor="middle" x="295" y="-283.8" font-family="Times,serif" font-size="14.00">Collect Object</text>
</g>
<g id="clust3" class="cluster"><title>cluster_gc_2</title>
<polygon fill="none" stroke="black" points="396,-8 396,-299 582,-299 582,-8 396,-8"/>
<text text-anchor="middle" x="489" y="-283.8" font-family="Times,serif" font-size="14.00">Collect Document</text>
</g>
<!-- Object_1 -->
<g id="node1" class="node"><title>Object_1</title>
<polygon fill="none" stroke="red" points="128,-268 74,-268 74,-232 128,-232 128,-268"/>
<text text-anchor="middle" x="101" y="-246.3" font-family="Times,serif" font-size="14.00">Object</text>
</g>
<!-- Document_1 -->
<g id="node2" class="node"><title>Document_1</title>
<polygon fill="none" stroke="black" points="138,-196 64,-196 64,-160 138,-160 138,-196"/>
<text text-anchor="middle" x="101" y="-174.3" font-family="Times,serif" font-size="14.00">Document</text>
</g>
<!-- Object_1&#45;&gt;Document_1 -->
<g id="edge1" class="edge"><title>Object_1&#45;&gt;Document_1</title>
<path fill="none" stroke="red" d="M101,-231.697C101,-223.983 101,-214.712 101,-206.112"/>
<polygon fill="red" stroke="red" points="104.5,-206.104 101,-196.104 97.5001,-206.104 104.5,-206.104"/>
</g>
<!-- NodeA_1 -->
<g id="node3" class="node"><title>NodeA_1</title>
<polygon fill="none" stroke="black" points="166,-124 110,-124 110,-88 166,-88 166,-124"/>
<text text-anchor="middle" x="138" y="-102.3" font-family="Times,serif" font-size="14.00">NodeA</text>
</g>
<!-- Document_1&#45;&gt;NodeA_1 -->
<g id="edge2" class="edge"><title>Document_1&#45;&gt;NodeA_1</title>
<path fill="none" stroke="red" d="M104.23,-159.697C107.692,-151.559 112.703,-141.689 117.881,-132.701"/>
<polygon fill="red" stroke="red" points="120.899,-134.476 123.064,-124.104 114.904,-130.861 120.899,-134.476"/>
</g>
<!-- NodeD_1 -->
<g id="node6" class="node"><title>NodeD_1</title>
<polygon fill="none" stroke="black" points="92,-124 36,-124 36,-88 92,-88 92,-124"/>
<text text-anchor="middle" x="64" y="-102.3" font-family="Times,serif" font-size="14.00">NodeD</text>
</g>
<!-- Document_1&#45;&gt;NodeD_1 -->
<g id="edge5" class="edge"><title>Document_1&#45;&gt;NodeD_1</title>
<path fill="none" stroke="red" d="M85.9382,-159.697C80.9045,-151.728 75.6004,-142.1 71.3229,-133.264"/>
<polygon fill="red" stroke="red" points="74.4796,-131.751 67.1458,-124.104 68.1106,-134.655 74.4796,-131.751"/>
</g>
<!-- NodeB_1 -->
<g id="node4" class="node"><title>NodeB_1</title>
<polygon fill="none" stroke="black" points="92.25,-52 37.75,-52 37.75,-16 92.25,-16 92.25,-52"/>
<text text-anchor="middle" x="65" y="-30.3" font-family="Times,serif" font-size="14.00">NodeB</text>
</g>
<!-- NodeA_1&#45;&gt;NodeB_1 -->
<g id="edge3" class="edge"><title>NodeA_1&#45;&gt;NodeB_1</title>
<path fill="none" stroke="red" d="M119.955,-87.6966C110.938,-79.0503 99.8821,-68.4486 90.0568,-59.027"/>
<polygon fill="red" stroke="red" points="92.4777,-56.4993 82.8374,-52.1043 87.6328,-61.5518 92.4777,-56.4993"/>
</g>
<!-- NodeC_1 -->
<g id="node5" class="node"><title>NodeC_1</title>
<polygon fill="none" stroke="black" points="175.25,-52 120.75,-52 120.75,-16 175.25,-16 175.25,-52"/>
<text text-anchor="middle" x="148" y="-30.3" font-family="Times,serif" font-size="14.00">NodeC</text>
</g>
<!-- NodeA_1&#45;&gt;NodeC_1 -->
<g id="edge4" class="edge"><title>NodeA_1&#45;&gt;NodeC_1</title>
<path fill="none" stroke="red" d="M140.472,-87.6966C141.574,-79.9827 142.898,-70.7125 144.127,-62.1124"/>
<polygon fill="red" stroke="red" points="147.607,-62.4988 145.557,-52.1043 140.677,-61.5088 147.607,-62.4988"/>
</g>
<!-- NodeA_1&#45;&gt;Document_1 -->
<g id="edge6" class="edge"><title>NodeA_1&#45;&gt;Document_1</title>
<path fill="none" stroke="red" d="M134.854,-124.104C131.418,-132.214 126.421,-142.076 121.245,-151.078"/>
<polygon fill="red" stroke="red" points="118.217,-149.323 116.062,-159.697 124.215,-152.931 118.217,-149.323"/>
</g>
<!-- NodeB_1&#45;&gt;Document_1 -->
<g id="edge7" class="edge"><title>NodeB_1&#45;&gt;Document_1</title>
<path fill="none" stroke="red" d="M48.6436,-52.059C33.3123,-70.2207 14.4845,-99.6418 27,-124 33.3305,-136.321 44.0017,-146.418 55.2989,-154.37"/>
<polygon fill="red" stroke="red" points="53.7083,-157.51 63.9984,-160.034 57.5277,-151.644 53.7083,-157.51"/>
</g>
<!-- NodeC_1&#45;&gt;Document_1 -->
<g id="edge8" class="edge"><title>NodeC_1&#45;&gt;Document_1</title>
<path fill="none" stroke="red" d="M160.644,-52.0957C172.618,-70.5453 187.102,-100.446 175,-124 168.67,-136.321 157.998,-146.418 146.701,-154.37"/>
<polygon fill="red" stroke="red" points="144.472,-151.644 138.002,-160.034 148.292,-157.51 144.472,-151.644"/>
</g>
<!-- NodeD_1&#45;&gt;Document_1 -->
<g id="edge9" class="edge"><title>NodeD_1&#45;&gt;Document_1</title>
<path fill="none" stroke="red" d="M78.9359,-124.104C83.965,-132.045 89.2754,-141.666 93.5698,-150.515"/>
<polygon fill="red" stroke="red" points="90.4272,-152.059 97.7697,-159.697 96.7929,-149.147 90.4272,-152.059"/>
</g>
<!-- Object_2 -->
<g id="node7" class="node"><title>Object_2</title>
<polygon fill="none" stroke="lightgrey" points="322,-268 268,-268 268,-232 322,-232 322,-268"/>
<text text-anchor="middle" x="295" y="-246.3" font-family="Times,serif" font-size="14.00">Object</text>
</g>
<!-- Document_2 -->
<g id="node8" class="node"><title>Document_2</title>
<polygon fill="none" stroke="black" points="332,-196 258,-196 258,-160 332,-160 332,-196"/>
<text text-anchor="middle" x="295" y="-174.3" font-family="Times,serif" font-size="14.00">Document</text>
</g>
<!-- Object_2&#45;&gt;Document_2 -->
<g id="edge10" class="edge"><title>Object_2&#45;&gt;Document_2</title>
<path fill="none" stroke="lightgrey" d="M295,-231.697C295,-223.983 295,-214.712 295,-206.112"/>
<polygon fill="lightgrey" stroke="lightgrey" points="298.5,-206.104 295,-196.104 291.5,-206.104 298.5,-206.104"/>
</g>
<!-- NodeA_2 -->
<g id="node9" class="node"><title>NodeA_2</title>
<polygon fill="none" stroke="black" points="360,-124 304,-124 304,-88 360,-88 360,-124"/>
<text text-anchor="middle" x="332" y="-102.3" font-family="Times,serif" font-size="14.00">NodeA</text>
</g>
<!-- Document_2&#45;&gt;NodeA_2 -->
<g id="edge11" class="edge"><title>Document_2&#45;&gt;NodeA_2</title>
<path fill="none" stroke="red" d="M298.23,-159.697C301.692,-151.559 306.703,-141.689 311.881,-132.701"/>
<polygon fill="red" stroke="red" points="314.899,-134.476 317.064,-124.104 308.904,-130.861 314.899,-134.476"/>
</g>
<!-- NodeD_2 -->
<g id="node12" class="node"><title>NodeD_2</title>
<polygon fill="none" stroke="black" points="286,-124 230,-124 230,-88 286,-88 286,-124"/>
<text text-anchor="middle" x="258" y="-102.3" font-family="Times,serif" font-size="14.00">NodeD</text>
</g>
<!-- Document_2&#45;&gt;NodeD_2 -->
<g id="edge14" class="edge"><title>Document_2&#45;&gt;NodeD_2</title>
<path fill="none" stroke="red" d="M279.938,-159.697C274.905,-151.728 269.6,-142.1 265.323,-133.264"/>
<polygon fill="red" stroke="red" points="268.48,-131.751 261.146,-124.104 262.111,-134.655 268.48,-131.751"/>
</g>
<!-- NodeB_2 -->
<g id="node10" class="node"><title>NodeB_2</title>
<polygon fill="none" stroke="black" points="286.25,-52 231.75,-52 231.75,-16 286.25,-16 286.25,-52"/>
<text text-anchor="middle" x="259" y="-30.3" font-family="Times,serif" font-size="14.00">NodeB</text>
</g>
<!-- NodeA_2&#45;&gt;NodeB_2 -->
<g id="edge12" class="edge"><title>NodeA_2&#45;&gt;NodeB_2</title>
<path fill="none" stroke="red" d="M313.955,-87.6966C304.938,-79.0503 293.882,-68.4486 284.057,-59.027"/>
<polygon fill="red" stroke="red" points="286.478,-56.4993 276.837,-52.1043 281.633,-61.5518 286.478,-56.4993"/>
</g>
<!-- NodeC_2 -->
<g id="node11" class="node"><title>NodeC_2</title>
<polygon fill="none" stroke="black" points="369.25,-52 314.75,-52 314.75,-16 369.25,-16 369.25,-52"/>
<text text-anchor="middle" x="342" y="-30.3" font-family="Times,serif" font-size="14.00">NodeC</text>
</g>
<!-- NodeA_2&#45;&gt;NodeC_2 -->
<g id="edge13" class="edge"><title>NodeA_2&#45;&gt;NodeC_2</title>
<path fill="none" stroke="red" d="M334.472,-87.6966C335.574,-79.9827 336.898,-70.7125 338.127,-62.1124"/>
<polygon fill="red" stroke="red" points="341.607,-62.4988 339.557,-52.1043 334.677,-61.5088 341.607,-62.4988"/>
</g>
<!-- NodeA_2&#45;&gt;Document_2 -->
<g id="edge15" class="edge"><title>NodeA_2&#45;&gt;Document_2</title>
<path fill="none" stroke="red" d="M328.854,-124.104C325.418,-132.214 320.421,-142.076 315.245,-151.078"/>
<polygon fill="red" stroke="red" points="312.217,-149.323 310.062,-159.697 318.215,-152.931 312.217,-149.323"/>
</g>
<!-- NodeB_2&#45;&gt;Document_2 -->
<g id="edge16" class="edge"><title>NodeB_2&#45;&gt;Document_2</title>
<path fill="none" stroke="red" d="M242.644,-52.059C227.312,-70.2207 208.484,-99.6418 221,-124 227.33,-136.321 238.002,-146.418 249.299,-154.37"/>
<polygon fill="red" stroke="red" points="247.708,-157.51 257.998,-160.034 251.528,-151.644 247.708,-157.51"/>
</g>
<!-- NodeC_2&#45;&gt;Document_2 -->
<g id="edge17" class="edge"><title>NodeC_2&#45;&gt;Document_2</title>
<path fill="none" stroke="red" d="M354.644,-52.0957C366.618,-70.5453 381.102,-100.446 369,-124 362.67,-136.321 351.998,-146.418 340.701,-154.37"/>
<polygon fill="red" stroke="red" points="338.472,-151.644 332.002,-160.034 342.292,-157.51 338.472,-151.644"/>
</g>
<!-- NodeD_2&#45;&gt;Document_2 -->
<g id="edge18" class="edge"><title>NodeD_2&#45;&gt;Document_2</title>
<path fill="none" stroke="red" d="M272.936,-124.104C277.965,-132.045 283.275,-141.666 287.57,-150.515"/>
<polygon fill="red" stroke="red" points="284.427,-152.059 291.77,-159.697 290.793,-149.147 284.427,-152.059"/>
</g>
<!-- Object_3 -->
<g id="node13" class="node"><title>Object_3</title>
<polygon fill="none" stroke="lightgrey" points="516,-268 462,-268 462,-232 516,-232 516,-268"/>
<text text-anchor="middle" x="489" y="-246.3" font-family="Times,serif" font-size="14.00">Object</text>
</g>
<!-- Document_3 -->
<g id="node14" class="node"><title>Document_3</title>
<polygon fill="none" stroke="lightgrey" points="526,-196 452,-196 452,-160 526,-160 526,-196"/>
<text text-anchor="middle" x="489" y="-174.3" font-family="Times,serif" font-size="14.00">Document</text>
</g>
<!-- Object_3&#45;&gt;Document_3 -->
<g id="edge19" class="edge"><title>Object_3&#45;&gt;Document_3</title>
<path fill="none" stroke="lightgrey" d="M489,-231.697C489,-223.983 489,-214.712 489,-206.112"/>
<polygon fill="lightgrey" stroke="lightgrey" points="492.5,-206.104 489,-196.104 485.5,-206.104 492.5,-206.104"/>
</g>
<!-- NodeA_3 -->
<g id="node15" class="node"><title>NodeA_3</title>
<polygon fill="none" stroke="lightgrey" points="554,-124 498,-124 498,-88 554,-88 554,-124"/>
<text text-anchor="middle" x="526" y="-102.3" font-family="Times,serif" font-size="14.00">NodeA</text>
</g>
<!-- Document_3&#45;&gt;NodeA_3 -->
<g id="edge20" class="edge"><title>Document_3&#45;&gt;NodeA_3</title>
<path fill="none" stroke="lightgrey" d="M492.23,-159.697C495.692,-151.559 500.703,-141.689 505.881,-132.701"/>
<polygon fill="lightgrey" stroke="lightgrey" points="508.899,-134.476 511.064,-124.104 502.904,-130.861 508.899,-134.476"/>
</g>
<!-- NodeD_3 -->
<g id="node18" class="node"><title>NodeD_3</title>
<polygon fill="none" stroke="lightgrey" points="480,-124 424,-124 424,-88 480,-88 480,-124"/>
<text text-anchor="middle" x="452" y="-102.3" font-family="Times,serif" font-size="14.00">NodeD</text>
</g>
<!-- Document_3&#45;&gt;NodeD_3 -->
<g id="edge23" class="edge"><title>Document_3&#45;&gt;NodeD_3</title>
<path fill="none" stroke="lightgrey" d="M473.938,-159.697C468.905,-151.728 463.6,-142.1 459.323,-133.264"/>
<polygon fill="lightgrey" stroke="lightgrey" points="462.48,-131.751 455.146,-124.104 456.111,-134.655 462.48,-131.751"/>
</g>
<!-- NodeB_3 -->
<g id="node16" class="node"><title>NodeB_3</title>
<polygon fill="none" stroke="lightgrey" points="480.25,-52 425.75,-52 425.75,-16 480.25,-16 480.25,-52"/>
<text text-anchor="middle" x="453" y="-30.3" font-family="Times,serif" font-size="14.00">NodeB</text>
</g>
<!-- NodeA_3&#45;&gt;NodeB_3 -->
<g id="edge21" class="edge"><title>NodeA_3&#45;&gt;NodeB_3</title>
<path fill="none" stroke="lightgrey" d="M507.955,-87.6966C498.938,-79.0503 487.882,-68.4486 478.057,-59.027"/>
<polygon fill="lightgrey" stroke="lightgrey" points="480.478,-56.4993 470.837,-52.1043 475.633,-61.5518 480.478,-56.4993"/>
</g>
<!-- NodeC_3 -->
<g id="node17" class="node"><title>NodeC_3</title>
<polygon fill="none" stroke="lightgrey" points="563.25,-52 508.75,-52 508.75,-16 563.25,-16 563.25,-52"/>
<text text-anchor="middle" x="536" y="-30.3" font-family="Times,serif" font-size="14.00">NodeC</text>
</g>
<!-- NodeA_3&#45;&gt;NodeC_3 -->
<g id="edge22" class="edge"><title>NodeA_3&#45;&gt;NodeC_3</title>
<path fill="none" stroke="lightgrey" d="M528.472,-87.6966C529.574,-79.9827 530.898,-70.7125 532.127,-62.1124"/>
<polygon fill="lightgrey" stroke="lightgrey" points="535.607,-62.4988 533.557,-52.1043 528.677,-61.5088 535.607,-62.4988"/>
</g>
<!-- NodeA_3&#45;&gt;Document_3 -->
<g id="edge24" class="edge"><title>NodeA_3&#45;&gt;Document_3</title>
<path fill="none" stroke="lightgrey" d="M522.854,-124.104C519.418,-132.214 514.421,-142.076 509.245,-151.078"/>
<polygon fill="lightgrey" stroke="lightgrey" points="506.217,-149.323 504.062,-159.697 512.215,-152.931 506.217,-149.323"/>
</g>
<!-- NodeB_3&#45;&gt;Document_3 -->
<g id="edge25" class="edge"><title>NodeB_3&#45;&gt;Document_3</title>
<path fill="none" stroke="lightgrey" d="M436.644,-52.059C421.312,-70.2207 402.484,-99.6418 415,-124 421.33,-136.321 432.002,-146.418 443.299,-154.37"/>
<polygon fill="lightgrey" stroke="lightgrey" points="441.708,-157.51 451.998,-160.034 445.528,-151.644 441.708,-157.51"/>
</g>
<!-- NodeC_3&#45;&gt;Document_3 -->
<g id="edge26" class="edge"><title>NodeC_3&#45;&gt;Document_3</title>
<path fill="none" stroke="lightgrey" d="M548.644,-52.0957C560.618,-70.5453 575.102,-100.446 563,-124 556.67,-136.321 545.998,-146.418 534.701,-154.37"/>
<polygon fill="lightgrey" stroke="lightgrey" points="532.472,-151.644 526.002,-160.034 536.292,-157.51 532.472,-151.644"/>
</g>
<!-- NodeD_3&#45;&gt;Document_3 -->
<g id="edge27" class="edge"><title>NodeD_3&#45;&gt;Document_3</title>
<path fill="none" stroke="lightgrey" d="M466.936,-124.104C471.965,-132.045 477.275,-141.666 481.57,-150.515"/>
<polygon fill="lightgrey" stroke="lightgrey" points="478.427,-152.059 485.77,-159.697 484.793,-149.147 478.427,-152.059"/>
</g>
</g>
</svg>
