<?xml version="1.0" encoding="UTF-8" standalone="no"?>
<!DOCTYPE svg PUBLIC "-//W3C//DTD SVG 1.1//EN"
 "http://www.w3.org/Graphics/SVG/1.1/DTD/svg11.dtd">
<!-- Generated by graphviz version 2.30.1 (20180223.0356)
 -->
<!-- Title: D Pages: 1 -->
<svg width="334pt" height="243pt"
 viewBox="0.00 0.00 334.00 243.00" xmlns="http://www.w3.org/2000/svg" xmlns:xlink="http://www.w3.org/1999/xlink">
<g id="graph0" class="graph" transform="scale(1 1) rotate(0) translate(4 239)">
<title>D</title>
<polygon fill="white" stroke="white" points="-4,5 -4,-239 331,-239 331,5 -4,5"/>
<g id="clust1" class="cluster"><title>cluster_before</title>
<polygon fill="none" stroke="black" points="8,-8 8,-227 84,-227 84,-8 8,-8"/>
<text text-anchor="middle" x="46" y="-211.8" font-family="Times,serif" font-size="14.00">Before GC</text>
</g>
<g id="clust2" class="cluster"><title>cluster_gc_1</title>
<polygon fill="none" stroke="black" points="92,-8 92,-227 162,-227 162,-8 92,-8"/>
<text text-anchor="middle" x="127" y="-211.8" font-family="Times,serif" font-size="14.00">Collect A</text>
</g>
<g id="clust3" class="cluster"><title>cluster_gc_2</title>
<polygon fill="none" stroke="black" points="170,-8 170,-227 240,-227 240,-8 170,-8"/>
<text text-anchor="middle" x="205" y="-211.8" font-family="Times,serif" font-size="14.00">Collect B</text>
</g>
<g id="clust4" class="cluster"><title>cluster_gc_3</title>
<polygon fill="none" stroke="black" points="248,-8 248,-227 318,-227 318,-8 248,-8"/>
<text text-anchor="middle" x="283" y="-211.8" font-family="Times,serif" font-size="14.00">Collect C</text>
</g>
<!-- A_1 -->
<g id="node1" class="node"><title>A_1</title>
<polygon fill="none" stroke="black" points="73,-196 19,-196 19,-160 73,-160 73,-196"/>
<text text-anchor="middle" x="46" y="-174.3" font-family="Times,serif" font-size="14.00">A</text>
</g>
<!-- B_1 -->
<g id="node2" class="node"><title>B_1</title>
<polygon fill="none" stroke="black" points="73,-124 19,-124 19,-88 73,-88 73,-124"/>
<text text-anchor="middle" x="46" y="-102.3" font-family="Times,serif" font-size="14.00">B</text>
</g>
<!-- A_1&#45;&gt;B_1 -->
<g id="edge1" class="edge"><title>A_1&#45;&gt;B_1</title>
<path fill="none" stroke="red" d="M46,-159.697C46,-151.983 46,-142.712 46,-134.112"/>
<polygon fill="red" stroke="red" points="49.5001,-134.104 46,-124.104 42.5001,-134.104 49.5001,-134.104"/>
</g>
<!-- C_1 -->
<g id="node3" class="node"><title>C_1</title>
<polygon fill="none" stroke="black" points="73,-52 19,-52 19,-16 73,-16 73,-52"/>
<text text-anchor="middle" x="46" y="-30.3" font-family="Times,serif" font-size="14.00">C</text>
</g>
<!-- B_1&#45;&gt;C_1 -->
<g id="edge2" class="edge"><title>B_1&#45;&gt;C_1</title>
<path fill="none" stroke="red" d="M46,-87.6966C46,-79.9827 46,-70.7125 46,-62.1124"/>
<polygon fill="red" stroke="red" points="49.5001,-62.1043 46,-52.1043 42.5001,-62.1044 49.5001,-62.1043"/>
</g>
<!-- A_2 -->
<g id="node4" class="node"><title>A_2</title>
<polygon fill="none" stroke="lightgray" points="154,-196 100,-196 100,-160 154,-160 154,-196"/>
<text text-anchor="middle" x="127" y="-174.3" font-family="Times,serif" font-size="14.00">A</text>
</g>
<!-- B_2 -->
<g id="node5" class="node"><title>B_2</title>
<polygon fill="none" stroke="black" points="154,-124 100,-124 100,-88 154,-88 154,-124"/>
<text text-anchor="middle" x="127" y="-102.3" font-family="Times,serif" font-size="14.00">B</text>
</g>
<!-- A_2&#45;&gt;B_2 -->
<g id="edge3" class="edge"><title>A_2&#45;&gt;B_2</title>
<path fill="none" stroke="lightgrey" d="M127,-159.697C127,-151.983 127,-142.712 127,-134.112"/>
<polygon fill="lightgrey" stroke="lightgrey" points="130.5,-134.104 127,-124.104 123.5,-134.104 130.5,-134.104"/>
</g>
<!-- C_2 -->
<g id="node6" class="node"><title>C_2</title>
<polygon fill="none" stroke="black" points="154,-52 100,-52 100,-16 154,-16 154,-52"/>
<text text-anchor="middle" x="127" y="-30.3" font-family="Times,serif" font-size="14.00">C</text>
</g>
<!-- B_2&#45;&gt;C_2 -->
<g id="edge4" class="edge"><title>B_2&#45;&gt;C_2</title>
<path fill="none" stroke="red" d="M127,-87.6966C127,-79.9827 127,-70.7125 127,-62.1124"/>
<polygon fill="red" stroke="red" points="130.5,-62.1043 127,-52.1043 123.5,-62.1044 130.5,-62.1043"/>
</g>
<!-- A_3 -->
<g id="node7" class="node"><title>A_3</title>
<polygon fill="none" stroke="lightgray" points="232,-196 178,-196 178,-160 232,-160 232,-196"/>
<text text-anchor="middle" x="205" y="-174.3" font-family="Times,serif" font-size="14.00">A</text>
</g>
<!-- B_3 -->
<g id="node8" class="node"><title>B_3</title>
<polygon fill="none" stroke="lightgray" points="232,-124 178,-124 178,-88 232,-88 232,-124"/>
<text text-anchor="middle" x="205" y="-102.3" font-family="Times,serif" font-size="14.00">B</text>
</g>
<!-- A_3&#45;&gt;B_3 -->
<g id="edge5" class="edge"><title>A_3&#45;&gt;B_3</title>
<path fill="none" stroke="lightgrey" d="M205,-159.697C205,-151.983 205,-142.712 205,-134.112"/>
<polygon fill="lightgrey" stroke="lightgrey" points="208.5,-134.104 205,-124.104 201.5,-134.104 208.5,-134.104"/>
</g>
<!-- C_3 -->
<g id="node9" class="node"><title>C_3</title>
<polygon fill="none" stroke="black" points="232,-52 178,-52 178,-16 232,-16 232,-52"/>
<text text-anchor="middle" x="205" y="-30.3" font-family="Times,serif" font-size="14.00">C</text>
</g>
<!-- B_3&#45;&gt;C_3 -->
<g id="edge6" class="edge"><title>B_3&#45;&gt;C_3</title>
<path fill="none" stroke="lightgray" d="M205,-87.6966C205,-79.9827 205,-70.7125 205,-62.1124"/>
<polygon fill="lightgray" stroke="lightgray" points="208.5,-62.1043 205,-52.1043 201.5,-62.1044 208.5,-62.1043"/>
</g>
<!-- A_4 -->
<g id="node10" class="node"><title>A_4</title>
<polygon fill="none" stroke="lightgray" points="310,-196 256,-196 256,-160 310,-160 310,-196"/>
<text text-anchor="middle" x="283" y="-174.3" font-family="Times,serif" font-size="14.00">A</text>
</g>
<!-- B_4 -->
<g id="node11" class="node"><title>B_4</title>
<polygon fill="none" stroke="lightgray" points="310,-124 256,-124 256,-88 310,-88 310,-124"/>
<text text-anchor="middle" x="283" y="-102.3" font-family="Times,serif" font-size="14.00">B</text>
</g>
<!-- A_4&#45;&gt;B_4 -->
<g id="edge7" class="edge"><title>A_4&#45;&gt;B_4</title>
<path fill="none" stroke="lightgrey" d="M283,-159.697C283,-151.983 283,-142.712 283,-134.112"/>
<polygon fill="lightgrey" stroke="lightgrey" points="286.5,-134.104 283,-124.104 279.5,-134.104 286.5,-134.104"/>
</g>
<!-- C_4 -->
<g id="node12" class="node"><title>C_4</title>
<polygon fill="none" stroke="lightgray" points="310,-52 256,-52 256,-16 310,-16 310,-52"/>
<text text-anchor="middle" x="283" y="-30.3" font-family="Times,serif" font-size="14.00">C</text>
</g>
<!-- B_4&#45;&gt;C_4 -->
<g id="edge8" class="edge"><title>B_4&#45;&gt;C_4</title>
<path fill="none" stroke="lightgray" d="M283,-87.6966C283,-79.9827 283,-70.7125 283,-62.1124"/>
<polygon fill="lightgray" stroke="lightgray" points="286.5,-62.1043 283,-52.1043 279.5,-62.1044 286.5,-62.1043"/>
</g>
</g>
</svg>
