<?xml version="1.0" encoding="UTF-8" standalone="no"?>
<!DOCTYPE svg PUBLIC "-//W3C//DTD SVG 1.1//EN"
 "http://www.w3.org/Graphics/SVG/1.1/DTD/svg11.dtd">
<!-- Generated by graphviz version 2.30.1 (20180223.0356)
 -->
<!-- Title: D Pages: 1 -->
<svg width="404pt" height="135pt"
 viewBox="0.00 0.00 404.00 135.34" xmlns="http://www.w3.org/2000/svg" xmlns:xlink="http://www.w3.org/1999/xlink">
<g id="graph0" class="graph" transform="scale(1 1) rotate(0) translate(4 131.343)">
<title>D</title>
<polygon fill="white" stroke="white" points="-4,5 -4,-131.343 401,-131.343 401,5 -4,5"/>
<!-- Object -->
<g id="node1" class="node"><title>Object</title>
<polygon fill="none" stroke="red" points="65.5,-86 0.5,-86 0.5,-50 65.5,-50 65.5,-86"/>
<text text-anchor="middle" x="33" y="-64.3" font-family="Times,serif" font-size="14.00">Object</text>
</g>
<!-- Document -->
<g id="node2" class="node"><title>Document</title>
<polygon fill="none" stroke="black" points="192,-86 102,-86 102,-50 192,-50 192,-86"/>
<text text-anchor="middle" x="147" y="-64.3" font-family="Times,serif" font-size="14.00">Document</text>
</g>
<!-- Object&#45;&gt;Document -->
<g id="edge1" class="edge"><title>Object&#45;&gt;Document</title>
<path fill="none" stroke="red" d="M65.7951,-68C73.7902,-68 82.6004,-68 91.3659,-68"/>
<polygon fill="red" stroke="red" points="91.5839,-71.5001 101.584,-68 91.5838,-64.5001 91.5839,-71.5001"/>
</g>
<!-- NodeA -->
<g id="node3" class="node"><title>NodeA</title>
<polygon fill="none" stroke="black" points="293.5,-59 228.5,-59 228.5,-23 293.5,-23 293.5,-59"/>
<text text-anchor="middle" x="261" y="-37.3" font-family="Times,serif" font-size="14.00">NodeA</text>
</g>
<!-- Document&#45;&gt;NodeA -->
<g id="edge2" class="edge"><title>Document&#45;&gt;NodeA</title>
<path fill="none" stroke="red" d="M192.265,-50.7124C200.967,-48.414 210.064,-46.2464 218.665,-44.4247"/>
<polygon fill="red" stroke="red" points="219.363,-47.8546 228.48,-42.4579 217.988,-40.991 219.363,-47.8546"/>
</g>
<!-- NodeD -->
<g id="node6" class="node"><title>NodeD</title>
<polygon fill="none" stroke="black" points="294,-113 228,-113 228,-77 294,-77 294,-113"/>
<text text-anchor="middle" x="261" y="-91.3" font-family="Times,serif" font-size="14.00">NodeD</text>
</g>
<!-- Document&#45;&gt;NodeD -->
<g id="edge5" class="edge"><title>Document&#45;&gt;NodeD</title>
<path fill="none" stroke="red" d="M192.265,-72.0546C200.791,-73.9134 209.697,-76.0808 218.143,-78.3547"/>
<polygon fill="red" stroke="red" points="217.224,-81.7318 227.797,-81.0607 219.113,-74.9915 217.224,-81.7318"/>
</g>
<!-- NodeB -->
<g id="node4" class="node"><title>NodeB</title>
<polygon fill="none" stroke="black" points="395.5,-124 330.5,-124 330.5,-88 395.5,-88 395.5,-124"/>
<text text-anchor="middle" x="363" y="-102.3" font-family="Times,serif" font-size="14.00">NodeB</text>
</g>
<!-- NodeA&#45;&gt;NodeB -->
<g id="edge3" class="edge"><title>NodeA&#45;&gt;NodeB</title>
<path fill="none" stroke="red" d="M289.856,-59.1061C301.017,-66.3607 314.022,-74.8145 325.893,-82.5305"/>
<polygon fill="red" stroke="red" points="324.002,-85.4756 334.294,-87.991 327.817,-79.6065 324.002,-85.4756"/>
</g>
<!-- NodeC -->
<g id="node5" class="node"><title>NodeC</title>
<polygon fill="none" stroke="black" points="396,-36 330,-36 330,-0 396,-0 396,-36"/>
<text text-anchor="middle" x="363" y="-14.3" font-family="Times,serif" font-size="14.00">NodeC</text>
</g>
<!-- NodeA&#45;&gt;NodeC -->
<g id="edge4" class="edge"><title>NodeA&#45;&gt;NodeC</title>
<path fill="none" stroke="red" d="M293.641,-33.7227C302.039,-31.7911 311.239,-29.675 320.092,-27.6389"/>
<polygon fill="red" stroke="red" points="320.917,-31.0406 329.878,-25.3881 319.348,-24.2187 320.917,-31.0406"/>
</g>
<!-- NodeA&#45;&gt;Document -->
<g id="edge6" class="edge"><title>NodeA&#45;&gt;Document</title>
<path fill="none" stroke="red" d="M228.48,-54.739C220.229,-57.1662 211.095,-59.5701 202.03,-61.7212"/>
<polygon fill="red" stroke="red" points="201.238,-58.3118 192.265,-63.9454 202.793,-65.137 201.238,-58.3118"/>
</g>
<!-- NodeB&#45;&gt;Document -->
<g id="edge7" class="edge"><title>NodeB&#45;&gt;Document</title>
<path fill="none" stroke="red" d="M330.484,-116.934C302.909,-124.824 262.054,-132.418 228,-122 208.845,-116.14 190.136,-103.979 175.632,-92.6782"/>
<polygon fill="red" stroke="red" points="177.581,-89.7526 167.607,-86.1783 173.175,-95.1921 177.581,-89.7526"/>
</g>
<!-- NodeC&#45;&gt;Document -->
<g id="edge8" class="edge"><title>NodeC&#45;&gt;Document</title>
<path fill="none" stroke="red" d="M329.825,-11.3447C302.189,-6.95818 261.607,-3.71918 228,-14 208.845,-19.8597 190.136,-32.0213 175.632,-43.3218"/>
<polygon fill="red" stroke="red" points="173.175,-40.8079 167.607,-49.8217 177.581,-46.2474 173.175,-40.8079"/>
</g>
<!-- NodeD&#45;&gt;Document -->
<g id="edge9" class="edge"><title>NodeD&#45;&gt;Document</title>
<path fill="none" stroke="red" d="M227.797,-93.4131C219.753,-91.8857 210.903,-89.9423 202.115,-87.7921"/>
<polygon fill="red" stroke="red" points="202.82,-84.36 192.265,-85.2876 201.094,-91.1441 202.82,-84.36"/>
</g>
</g>
</svg>
