<?xml version="1.0" encoding="UTF-8" standalone="no"?>
<!DOCTYPE svg PUBLIC "-//W3C//DTD SVG 1.1//EN"
 "http://www.w3.org/Graphics/SVG/1.1/DTD/svg11.dtd">
<!-- Generated by graphviz version 2.30.1 (20180223.0356)
 -->
<!-- Title: D Pages: 1 -->
<svg width="448pt" height="209pt"
 viewBox="0.00 0.00 448.00 209.30" xmlns="http://www.w3.org/2000/svg" xmlns:xlink="http://www.w3.org/1999/xlink">
<g id="graph0" class="graph" transform="scale(1 1) rotate(0) translate(4 205.305)">
<title>D</title>
<polygon fill="white" stroke="white" points="-4,5 -4,-205.305 445,-205.305 445,5 -4,5"/>
<!-- Object -->
<g id="node1" class="node"><title>Object</title>
<polygon fill="none" stroke="red" points="87.5,-91.799 22.5,-91.799 22.5,-55.799 87.5,-55.799 87.5,-91.799"/>
<text text-anchor="middle" x="55" y="-70.099" font-family="Times,serif" font-size="14.00">Object</text>
</g>
<!-- Document -->
<g id="node3" class="node"><title>Document</title>
<polygon fill="none" stroke="black" points="236,-118.799 146,-118.799 146,-82.799 236,-82.799 236,-118.799"/>
<text text-anchor="middle" x="191" y="-97.099" font-family="Times,serif" font-size="14.00">Document</text>
</g>
<!-- Object&#45;&gt;Document -->
<g id="edge1" class="edge"><title>Object&#45;&gt;Document</title>
<path fill="none" stroke="blue" d="M87.7561,-80.1976C102.113,-83.0904 119.487,-86.5912 135.809,-89.8799"/>
<polygon fill="blue" stroke="blue" points="135.304,-93.3485 145.798,-91.8927 136.687,-86.4864 135.304,-93.3485"/>
</g>
<!-- X -->
<g id="node2" class="node"><title>X</title>
<polygon fill="none" stroke="red" points="109.5,-145.799 0.5,-145.799 0.5,-109.799 109.5,-109.799 109.5,-145.799"/>
<text text-anchor="middle" x="55" y="-124.099" font-family="Times,serif" font-size="14.00">Handle table</text>
</g>
<!-- X&#45;&gt;Document -->
<g id="edge10" class="edge"><title>X&#45;&gt;Document</title>
<path fill="none" stroke="red" d="M109.731,-116.973C118.314,-115.243 127.199,-113.453 135.793,-111.721"/>
<polygon fill="red" stroke="red" points="136.6,-115.129 145.711,-109.723 135.217,-108.267 136.6,-115.129"/>
</g>
<!-- NodeA -->
<g id="node4" class="node"><title>NodeA</title>
<polygon fill="none" stroke="black" points="337.5,-48.799 272.5,-48.799 272.5,-12.799 337.5,-12.799 337.5,-48.799"/>
<text text-anchor="middle" x="305" y="-27.099" font-family="Times,serif" font-size="14.00">NodeA</text>
</g>
<!-- X&#45;&gt;NodeA -->
<g id="edge11" class="edge"><title>X&#45;&gt;NodeA</title>
<path fill="none" stroke="red" d="M94.236,-109.76C99.6144,-106.913 105.007,-103.885 110,-100.799 127.013,-90.2844 128.031,-82.5812 146,-73.799 183.336,-55.5512 229.55,-44.1224 262.33,-37.675"/>
<polygon fill="red" stroke="red" points="263.298,-41.0539 272.472,-35.7544 261.996,-34.1762 263.298,-41.0539"/>
</g>
<!-- NodeB -->
<g id="node5" class="node"><title>NodeB</title>
<polygon fill="none" stroke="black" points="439.5,-132.799 374.5,-132.799 374.5,-96.799 439.5,-96.799 439.5,-132.799"/>
<text text-anchor="middle" x="407" y="-111.099" font-family="Times,serif" font-size="14.00">NodeB</text>
</g>
<!-- X&#45;&gt;NodeB -->
<g id="edge12" class="edge"><title>X&#45;&gt;NodeB</title>
<path fill="none" stroke="red" d="M86.4329,-145.965C139.482,-175.121 251.484,-225.445 338,-187.799 359.774,-178.324 377.73,-158.06 389.711,-141.281"/>
<polygon fill="red" stroke="red" points="392.683,-143.135 395.421,-132.9 386.898,-139.194 392.683,-143.135"/>
</g>
<!-- NodeC -->
<g id="node6" class="node"><title>NodeC</title>
<polygon fill="none" stroke="black" points="440,-48.799 374,-48.799 374,-12.799 440,-12.799 440,-48.799"/>
<text text-anchor="middle" x="407" y="-27.099" font-family="Times,serif" font-size="14.00">NodeC</text>
</g>
<!-- X&#45;&gt;NodeC -->
<g id="edge13" class="edge"><title>X&#45;&gt;NodeC</title>
<path fill="none" stroke="red" d="M98.2544,-109.714C102.453,-107.045 106.462,-104.075 110,-100.799 132.818,-79.6692 121.394,-59.8168 146,-40.799 192.179,-5.10706 214.23,-12.1058 272,-3.79902 301.035,0.375872 309.189,1.71157 338,-3.79902 346.793,-5.48076 355.898,-8.28285 364.477,-11.461"/>
<polygon fill="red" stroke="red" points="363.308,-14.7622 373.895,-15.1693 365.872,-8.24888 363.308,-14.7622"/>
</g>
<!-- NodeD -->
<g id="node7" class="node"><title>NodeD</title>
<polygon fill="none" stroke="black" points="338,-178.799 272,-178.799 272,-142.799 338,-142.799 338,-178.799"/>
<text text-anchor="middle" x="305" y="-157.099" font-family="Times,serif" font-size="14.00">NodeD</text>
</g>
<!-- X&#45;&gt;NodeD -->
<g id="edge14" class="edge"><title>X&#45;&gt;NodeD</title>
<path fill="none" stroke="red" d="M109.507,-134.919C155.057,-140.98 219.611,-149.57 261.641,-155.163"/>
<polygon fill="red" stroke="red" points="261.442,-158.667 271.816,-156.517 262.365,-151.728 261.442,-158.667"/>
</g>
<!-- Document&#45;&gt;NodeA -->
<g id="edge2" class="edge"><title>Document&#45;&gt;NodeA</title>
<path fill="none" stroke="blue" d="M212.282,-82.7825C226.561,-72.5323 246.158,-59.8938 263.572,-49.5541"/>
<polygon fill="blue" stroke="blue" points="265.565,-52.4434 272.44,-44.3816 262.038,-46.3968 265.565,-52.4434"/>
</g>
<!-- Document&#45;&gt;NodeD -->
<g id="edge5" class="edge"><title>Document&#45;&gt;NodeD</title>
<path fill="none" stroke="blue" d="M236.265,-117.896C248.112,-123.969 260.692,-130.855 271.755,-137.346"/>
<polygon fill="blue" stroke="blue" points="270.265,-140.534 280.64,-142.68 273.868,-134.533 270.265,-140.534"/>
</g>
<!-- NodeA&#45;&gt;NodeB -->
<g id="edge3" class="edge"><title>NodeA&#45;&gt;NodeB</title>
<path fill="none" stroke="blue" d="M327.699,-49.0258C341.982,-61.024 360.86,-76.8816 376.501,-90.02"/>
<polygon fill="blue" stroke="blue" points="374.436,-92.8559 384.344,-96.6078 378.938,-87.4959 374.436,-92.8559"/>
</g>
<!-- NodeA&#45;&gt;NodeC -->
<g id="edge4" class="edge"><title>NodeA&#45;&gt;NodeC</title>
<path fill="none" stroke="blue" d="M337.641,-30.799C345.948,-30.799 355.041,-30.799 363.806,-30.799"/>
<polygon fill="blue" stroke="blue" points="363.878,-34.2991 373.878,-30.799 363.878,-27.2991 363.878,-34.2991"/>
</g>
<!-- NodeA&#45;&gt;Document -->
<g id="edge6" class="edge"><title>NodeA&#45;&gt;Document</title>
<path fill="none" stroke="blue" d="M283.571,-48.9205C271.357,-57.6802 255.29,-68.1672 240.029,-77.4697"/>
<polygon fill="blue" stroke="blue" points="237.944,-74.6394 231.172,-82.7879 241.547,-80.6406 237.944,-74.6394"/>
</g>
<!-- NodeB&#45;&gt;Document -->
<g id="edge7" class="edge"><title>NodeB&#45;&gt;Document</title>
<path fill="none" stroke="blue" d="M374.469,-112.736C340.741,-110.53 286.632,-106.99 246.079,-104.337"/>
<polygon fill="blue" stroke="blue" points="246.289,-100.843 236.081,-103.683 245.832,-107.828 246.289,-100.843"/>
</g>
<!-- NodeC&#45;&gt;Document -->
<g id="edge8" class="edge"><title>NodeC&#45;&gt;Document</title>
<path fill="none" stroke="blue" d="M373.713,-44.3191C362.491,-48.8313 349.768,-53.7395 338,-57.799 307.855,-68.1983 273.687,-78.3486 245.987,-86.1737"/>
<polygon fill="blue" stroke="blue" points="244.778,-82.8778 236.094,-88.9476 246.668,-89.6178 244.778,-82.8778"/>
</g>
<!-- NodeD&#45;&gt;Document -->
<g id="edge9" class="edge"><title>NodeD&#45;&gt;Document</title>
<path fill="none" stroke="blue" d="M271.905,-149.776C256.918,-142.519 239.119,-132.984 224.128,-124.183"/>
<polygon fill="blue" stroke="blue" points="225.581,-120.973 215.206,-118.824 221.977,-126.973 225.581,-120.973"/>
</g>
</g>
</svg>
