<?xml version="1.0" encoding="UTF-8" standalone="no"?>
<!DOCTYPE svg PUBLIC "-//W3C//DTD SVG 1.1//EN"
 "http://www.w3.org/Graphics/SVG/1.1/DTD/svg11.dtd">
<!-- Generated by graphviz version 2.30.1 (20180223.0356)
 -->
<!-- Title: D Pages: 1 -->
<svg width="744pt" height="243pt"
 viewBox="0.00 0.00 744.00 243.00" xmlns="http://www.w3.org/2000/svg" xmlns:xlink="http://www.w3.org/1999/xlink">
<g id="graph0" class="graph" transform="scale(1 1) rotate(0) translate(4 239)">
<title>D</title>
<polygon fill="white" stroke="white" points="-4,5 -4,-239 741,-239 741,5 -4,5"/>
<g id="clust1" class="cluster"><title>cluster_before</title>
<polygon fill="none" stroke="black" points="8,-8 8,-227 182,-227 182,-8 8,-8"/>
<text text-anchor="middle" x="95" y="-211.8" font-family="Times,serif" font-size="14.00">Before GC</text>
</g>
<g id="clust2" class="cluster"><title>cluster_gc_1</title>
<polygon fill="none" stroke="black" points="190,-8 190,-227 364,-227 364,-8 190,-8"/>
<text text-anchor="middle" x="277" y="-211.8" font-family="Times,serif" font-size="14.00">Collect A</text>
</g>
<g id="clust3" class="cluster"><title>cluster_gc_2</title>
<polygon fill="none" stroke="black" points="372,-8 372,-227 546,-227 546,-8 372,-8"/>
<text text-anchor="middle" x="459" y="-211.8" font-family="Times,serif" font-size="14.00">Release handle to B</text>
</g>
<g id="clust4" class="cluster"><title>cluster_gc_3</title>
<polygon fill="none" stroke="black" points="554,-8 554,-227 728,-227 728,-8 554,-8"/>
<text text-anchor="middle" x="641" y="-211.8" font-family="Times,serif" font-size="14.00">Release handle to C</text>
</g>
<!-- X_1 -->
<g id="node1" class="node"><title>X_1</title>
<polygon fill="none" stroke="red" points="174,-196 88,-196 88,-160 174,-160 174,-196"/>
<text text-anchor="middle" x="131" y="-174.3" font-family="Times,serif" font-size="14.00">Handle table</text>
</g>
<!-- B_1 -->
<g id="node3" class="node"><title>B_1</title>
<polygon fill="none" stroke="black" points="112,-124 58,-124 58,-88 112,-88 112,-124"/>
<text text-anchor="middle" x="85" y="-102.3" font-family="Times,serif" font-size="14.00">B</text>
</g>
<!-- X_1&#45;&gt;B_1 -->
<g id="edge3" class="edge"><title>X_1&#45;&gt;B_1</title>
<path fill="none" stroke="red" d="M119.629,-159.697C114.282,-151.559 107.796,-141.689 101.889,-132.701"/>
<polygon fill="red" stroke="red" points="104.657,-130.539 96.24,-124.104 98.8068,-134.384 104.657,-130.539"/>
</g>
<!-- C_1 -->
<g id="node4" class="node"><title>C_1</title>
<polygon fill="none" stroke="black" points="135,-52 81,-52 81,-16 135,-16 135,-52"/>
<text text-anchor="middle" x="108" y="-30.3" font-family="Times,serif" font-size="14.00">C</text>
</g>
<!-- X_1&#45;&gt;C_1 -->
<g id="edge4" class="edge"><title>X_1&#45;&gt;C_1</title>
<path fill="none" stroke="red" d="M129.731,-159.844C128.247,-141.852 125.416,-112.799 121,-88 119.482,-79.4741 117.391,-70.2798 115.329,-61.9813"/>
<polygon fill="red" stroke="red" points="118.659,-60.8795 112.779,-52.0667 111.88,-62.6234 118.659,-60.8795"/>
</g>
<!-- A_1 -->
<g id="node2" class="node"><title>A_1</title>
<polygon fill="none" stroke="red" points="70,-196 16,-196 16,-160 70,-160 70,-196"/>
<text text-anchor="middle" x="43" y="-174.3" font-family="Times,serif" font-size="14.00">A</text>
</g>
<!-- A_1&#45;&gt;B_1 -->
<g id="edge1" class="edge"><title>A_1&#45;&gt;B_1</title>
<path fill="none" stroke="blue" d="M53.382,-159.697C58.2647,-151.559 64.1866,-141.689 69.5792,-132.701"/>
<polygon fill="blue" stroke="blue" points="72.5936,-134.48 74.7374,-124.104 66.5912,-130.879 72.5936,-134.48"/>
</g>
<!-- B_1&#45;&gt;C_1 -->
<g id="edge2" class="edge"><title>B_1&#45;&gt;C_1</title>
<path fill="none" stroke="blue" d="M90.6854,-87.6966C93.2478,-79.8979 96.3329,-70.5085 99.1847,-61.8292"/>
<polygon fill="blue" stroke="blue" points="102.584,-62.6972 102.38,-52.1043 95.9333,-60.5121 102.584,-62.6972"/>
</g>
<!-- X_2 -->
<g id="node5" class="node"><title>X_2</title>
<polygon fill="none" stroke="red" points="356,-196 270,-196 270,-160 356,-160 356,-196"/>
<text text-anchor="middle" x="313" y="-174.3" font-family="Times,serif" font-size="14.00">Handle table</text>
</g>
<!-- B_2 -->
<g id="node7" class="node"><title>B_2</title>
<polygon fill="none" stroke="black" points="294,-124 240,-124 240,-88 294,-88 294,-124"/>
<text text-anchor="middle" x="267" y="-102.3" font-family="Times,serif" font-size="14.00">B</text>
</g>
<!-- X_2&#45;&gt;B_2 -->
<g id="edge7" class="edge"><title>X_2&#45;&gt;B_2</title>
<path fill="none" stroke="red" d="M301.629,-159.697C296.282,-151.559 289.796,-141.689 283.889,-132.701"/>
<polygon fill="red" stroke="red" points="286.657,-130.539 278.24,-124.104 280.807,-134.384 286.657,-130.539"/>
</g>
<!-- C_2 -->
<g id="node8" class="node"><title>C_2</title>
<polygon fill="none" stroke="black" points="317,-52 263,-52 263,-16 317,-16 317,-52"/>
<text text-anchor="middle" x="290" y="-30.3" font-family="Times,serif" font-size="14.00">C</text>
</g>
<!-- X_2&#45;&gt;C_2 -->
<g id="edge8" class="edge"><title>X_2&#45;&gt;C_2</title>
<path fill="none" stroke="red" d="M311.731,-159.844C310.247,-141.852 307.416,-112.799 303,-88 301.482,-79.4741 299.391,-70.2798 297.329,-61.9813"/>
<polygon fill="red" stroke="red" points="300.659,-60.8795 294.779,-52.0667 293.88,-62.6234 300.659,-60.8795"/>
</g>
<!-- A_2 -->
<g id="node6" class="node"><title>A_2</title>
<polygon fill="none" stroke="lightgrey" points="252,-196 198,-196 198,-160 252,-160 252,-196"/>
<text text-anchor="middle" x="225" y="-174.3" font-family="Times,serif" font-size="14.00">A</text>
</g>
<!-- A_2&#45;&gt;B_2 -->
<g id="edge5" class="edge"><title>A_2&#45;&gt;B_2</title>
<path fill="none" stroke="lightgrey" d="M235.382,-159.697C240.265,-151.559 246.187,-141.689 251.579,-132.701"/>
<polygon fill="lightgrey" stroke="lightgrey" points="254.594,-134.48 256.737,-124.104 248.591,-130.879 254.594,-134.48"/>
</g>
<!-- B_2&#45;&gt;C_2 -->
<g id="edge6" class="edge"><title>B_2&#45;&gt;C_2</title>
<path fill="none" stroke="blue" d="M272.685,-87.6966C275.248,-79.8979 278.333,-70.5085 281.185,-61.8292"/>
<polygon fill="blue" stroke="blue" points="284.584,-62.6972 284.38,-52.1043 277.933,-60.5121 284.584,-62.6972"/>
</g>
<!-- X_3 -->
<g id="node9" class="node"><title>X_3</title>
<polygon fill="none" stroke="red" points="538,-196 452,-196 452,-160 538,-160 538,-196"/>
<text text-anchor="middle" x="495" y="-174.3" font-family="Times,serif" font-size="14.00">Handle table</text>
</g>
<!-- B_3 -->
<g id="node11" class="node"><title>B_3</title>
<polygon fill="none" stroke="lightgrey" points="476,-124 422,-124 422,-88 476,-88 476,-124"/>
<text text-anchor="middle" x="449" y="-102.3" font-family="Times,serif" font-size="14.00">B</text>
</g>
<!-- X_3&#45;&gt;B_3 -->
<g id="edge11" class="edge"><title>X_3&#45;&gt;B_3</title>
<path fill="none" stroke="lightgrey" d="M483.629,-159.697C478.282,-151.559 471.796,-141.689 465.889,-132.701"/>
<polygon fill="lightgrey" stroke="lightgrey" points="468.657,-130.539 460.24,-124.104 462.807,-134.384 468.657,-130.539"/>
</g>
<!-- C_3 -->
<g id="node12" class="node"><title>C_3</title>
<polygon fill="none" stroke="black" points="499,-52 445,-52 445,-16 499,-16 499,-52"/>
<text text-anchor="middle" x="472" y="-30.3" font-family="Times,serif" font-size="14.00">C</text>
</g>
<!-- X_3&#45;&gt;C_3 -->
<g id="edge12" class="edge"><title>X_3&#45;&gt;C_3</title>
<path fill="none" stroke="red" d="M493.731,-159.844C492.247,-141.852 489.416,-112.799 485,-88 483.482,-79.4741 481.391,-70.2798 479.329,-61.9813"/>
<polygon fill="red" stroke="red" points="482.659,-60.8795 476.779,-52.0667 475.88,-62.6234 482.659,-60.8795"/>
</g>
<!-- A_3 -->
<g id="node10" class="node"><title>A_3</title>
<polygon fill="none" stroke="lightgrey" points="434,-196 380,-196 380,-160 434,-160 434,-196"/>
<text text-anchor="middle" x="407" y="-174.3" font-family="Times,serif" font-size="14.00">A</text>
</g>
<!-- A_3&#45;&gt;B_3 -->
<g id="edge9" class="edge"><title>A_3&#45;&gt;B_3</title>
<path fill="none" stroke="lightgrey" d="M417.382,-159.697C422.265,-151.559 428.187,-141.689 433.579,-132.701"/>
<polygon fill="lightgrey" stroke="lightgrey" points="436.594,-134.48 438.737,-124.104 430.591,-130.879 436.594,-134.48"/>
</g>
<!-- B_3&#45;&gt;C_3 -->
<g id="edge10" class="edge"><title>B_3&#45;&gt;C_3</title>
<path fill="none" stroke="lightgrey" d="M454.685,-87.6966C457.248,-79.8979 460.333,-70.5085 463.185,-61.8292"/>
<polygon fill="lightgrey" stroke="lightgrey" points="466.584,-62.6972 466.38,-52.1043 459.933,-60.5121 466.584,-62.6972"/>
</g>
<!-- X_4 -->
<g id="node13" class="node"><title>X_4</title>
<polygon fill="none" stroke="red" points="720,-196 634,-196 634,-160 720,-160 720,-196"/>
<text text-anchor="middle" x="677" y="-174.3" font-family="Times,serif" font-size="14.00">Handle table</text>
</g>
<!-- B_4 -->
<g id="node15" class="node"><title>B_4</title>
<polygon fill="none" stroke="lightgrey" points="658,-124 604,-124 604,-88 658,-88 658,-124"/>
<text text-anchor="middle" x="631" y="-102.3" font-family="Times,serif" font-size="14.00">B</text>
</g>
<!-- X_4&#45;&gt;B_4 -->
<g id="edge15" class="edge"><title>X_4&#45;&gt;B_4</title>
<path fill="none" stroke="lightgrey" d="M665.629,-159.697C660.282,-151.559 653.796,-141.689 647.889,-132.701"/>
<polygon fill="lightgrey" stroke="lightgrey" points="650.657,-130.539 642.24,-124.104 644.807,-134.384 650.657,-130.539"/>
</g>
<!-- C_4 -->
<g id="node16" class="node"><title>C_4</title>
<polygon fill="none" stroke="lightgrey" points="681,-52 627,-52 627,-16 681,-16 681,-52"/>
<text text-anchor="middle" x="654" y="-30.3" font-family="Times,serif" font-size="14.00">C</text>
</g>
<!-- X_4&#45;&gt;C_4 -->
<g id="edge16" class="edge"><title>X_4&#45;&gt;C_4</title>
<path fill="none" stroke="lightgrey" d="M675.731,-159.844C674.247,-141.852 671.416,-112.799 667,-88 665.482,-79.4741 663.391,-70.2798 661.329,-61.9813"/>
<polygon fill="lightgrey" stroke="lightgrey" points="664.659,-60.8795 658.779,-52.0667 657.88,-62.6234 664.659,-60.8795"/>
</g>
<!-- A_4 -->
<g id="node14" class="node"><title>A_4</title>
<polygon fill="none" stroke="lightgrey" points="616,-196 562,-196 562,-160 616,-160 616,-196"/>
<text text-anchor="middle" x="589" y="-174.3" font-family="Times,serif" font-size="14.00">A</text>
</g>
<!-- A_4&#45;&gt;B_4 -->
<g id="edge13" class="edge"><title>A_4&#45;&gt;B_4</title>
<path fill="none" stroke="lightgrey" d="M599.382,-159.697C604.265,-151.559 610.187,-141.689 615.579,-132.701"/>
<polygon fill="lightgrey" stroke="lightgrey" points="618.594,-134.48 620.737,-124.104 612.591,-130.879 618.594,-134.48"/>
</g>
<!-- B_4&#45;&gt;C_4 -->
<g id="edge14" class="edge"><title>B_4&#45;&gt;C_4</title>
<path fill="none" stroke="lightgrey" d="M636.685,-87.6966C639.248,-79.8979 642.333,-70.5085 645.185,-61.8292"/>
<polygon fill="lightgrey" stroke="lightgrey" points="648.584,-62.6972 648.38,-52.1043 641.933,-60.5121 648.584,-62.6972"/>
</g>
</g>
</svg>
