<?xml version="1.0" encoding="UTF-8" standalone="no"?>
<!DOCTYPE svg PUBLIC "-//W3C//DTD SVG 1.1//EN"
 "http://www.w3.org/Graphics/SVG/1.1/DTD/svg11.dtd">
<!-- Generated by graphviz version 2.30.1 (20180223.0356)
 -->
<!-- Title: D Pages: 1 -->
<svg width="718pt" height="315pt"
 viewBox="0.00 0.00 718.00 315.00" xmlns="http://www.w3.org/2000/svg" xmlns:xlink="http://www.w3.org/1999/xlink">
<g id="graph0" class="graph" transform="scale(1 1) rotate(0) translate(4 311)">
<title>D</title>
<polygon fill="white" stroke="white" points="-4,5 -4,-311 715,-311 715,5 -4,5"/>
<g id="clust1" class="cluster"><title>cluster_before</title>
<polygon fill="none" stroke="black" points="8,-8 8,-299 234,-299 234,-8 8,-8"/>
<text text-anchor="middle" x="121" y="-283.8" font-family="Times,serif" font-size="14.00">Before GC</text>
</g>
<g id="clust2" class="cluster"><title>cluster_gc_1</title>
<polygon fill="none" stroke="black" points="242,-8 242,-299 468,-299 468,-8 242,-8"/>
<text text-anchor="middle" x="355" y="-283.8" font-family="Times,serif" font-size="14.00">Collect Object</text>
</g>
<g id="clust3" class="cluster"><title>cluster_gc_2</title>
<polygon fill="none" stroke="black" points="476,-8 476,-299 702,-299 702,-8 476,-8"/>
<text text-anchor="middle" x="589" y="-283.8" font-family="Times,serif" font-size="14.00">Release handle to Document</text>
</g>
<!-- Object_1 -->
<g id="node1" class="node"><title>Object_1</title>
<polygon fill="none" stroke="red" points="90,-268 36,-268 36,-232 90,-232 90,-268"/>
<text text-anchor="middle" x="63" y="-246.3" font-family="Times,serif" font-size="14.00">Object</text>
</g>
<!-- Document_1 -->
<g id="node3" class="node"><title>Document_1</title>
<polygon fill="none" stroke="black" points="152,-196 78,-196 78,-160 152,-160 152,-196"/>
<text text-anchor="middle" x="115" y="-174.3" font-family="Times,serif" font-size="14.00">Document</text>
</g>
<!-- Object_1&#45;&gt;Document_1 -->
<g id="edge1" class="edge"><title>Object_1&#45;&gt;Document_1</title>
<path fill="none" stroke="blue" d="M75.8539,-231.697C82.0251,-223.389 89.537,-213.277 96.324,-204.141"/>
<polygon fill="blue" stroke="blue" points="99.1403,-206.219 102.294,-196.104 93.521,-202.045 99.1403,-206.219"/>
</g>
<!-- X_1 -->
<g id="node2" class="node"><title>X_1</title>
<polygon fill="none" stroke="red" points="194,-268 108,-268 108,-232 194,-232 194,-268"/>
<text text-anchor="middle" x="151" y="-246.3" font-family="Times,serif" font-size="14.00">Handle table</text>
</g>
<!-- X_1&#45;&gt;Document_1 -->
<g id="edge10" class="edge"><title>X_1&#45;&gt;Document_1</title>
<path fill="none" stroke="red" d="M142.101,-231.697C138.003,-223.728 133.051,-214.1 128.507,-205.264"/>
<polygon fill="red" stroke="red" points="131.483,-203.396 123.797,-196.104 125.258,-206.598 131.483,-203.396"/>
</g>
<!-- NodeA_1 -->
<g id="node4" class="node"><title>NodeA_1</title>
<polygon fill="none" stroke="black" points="186,-124 130,-124 130,-88 186,-88 186,-124"/>
<text text-anchor="middle" x="158" y="-102.3" font-family="Times,serif" font-size="14.00">NodeA</text>
</g>
<!-- X_1&#45;&gt;NodeA_1 -->
<g id="edge11" class="edge"><title>X_1&#45;&gt;NodeA_1</title>
<path fill="none" stroke="red" d="M155.059,-231.929C157.306,-221.598 159.867,-208.12 161,-196 162.931,-175.349 162.014,-151.901 160.704,-134.258"/>
<polygon fill="red" stroke="red" points="164.176,-133.776 159.86,-124.1 157.2,-134.356 164.176,-133.776"/>
</g>
<!-- NodeB_1 -->
<g id="node5" class="node"><title>NodeB_1</title>
<polygon fill="none" stroke="black" points="138.25,-52 83.75,-52 83.75,-16 138.25,-16 138.25,-52"/>
<text text-anchor="middle" x="111" y="-30.3" font-family="Times,serif" font-size="14.00">NodeB</text>
</g>
<!-- X_1&#45;&gt;NodeB_1 -->
<g id="edge12" class="edge"><title>X_1&#45;&gt;NodeB_1</title>
<path fill="none" stroke="red" d="M107.916,-232.62C89.9177,-223.997 69.9858,-211.869 56,-196 33.1901,-170.119 33.5644,-157.868 27,-124 23.9555,-108.292 19.2736,-102.011 27,-88 37.1172,-69.6538 56.5523,-56.7837 74.1816,-48.3242"/>
<polygon fill="red" stroke="red" points="76.0114,-51.3406 83.7193,-44.0715 73.1607,-44.9473 76.0114,-51.3406"/>
</g>
<!-- NodeC_1 -->
<g id="node6" class="node"><title>NodeC_1</title>
<polygon fill="none" stroke="black" points="225.25,-52 170.75,-52 170.75,-16 225.25,-16 225.25,-52"/>
<text text-anchor="middle" x="198" y="-30.3" font-family="Times,serif" font-size="14.00">NodeC</text>
</g>
<!-- X_1&#45;&gt;NodeC_1 -->
<g id="edge13" class="edge"><title>X_1&#45;&gt;NodeC_1</title>
<path fill="none" stroke="red" d="M161.056,-231.945C174.211,-208.547 196.575,-164.744 205,-124 209.23,-103.542 207.065,-79.9539 204.067,-62.2036"/>
<polygon fill="red" stroke="red" points="207.481,-61.4226 202.195,-52.241 200.602,-62.7154 207.481,-61.4226"/>
</g>
<!-- NodeD_1 -->
<g id="node7" class="node"><title>NodeD_1</title>
<polygon fill="none" stroke="black" points="92,-124 36,-124 36,-88 92,-88 92,-124"/>
<text text-anchor="middle" x="64" y="-102.3" font-family="Times,serif" font-size="14.00">NodeD</text>
</g>
<!-- X_1&#45;&gt;NodeD_1 -->
<g id="edge14" class="edge"><title>X_1&#45;&gt;NodeD_1</title>
<path fill="none" stroke="red" d="M109.264,-231.973C93.9359,-223.512 78.1152,-211.681 69,-196 58.157,-177.347 57.6411,-152.615 59.4199,-133.958"/>
<polygon fill="red" stroke="red" points="62.8941,-134.381 60.6323,-124.031 55.9458,-133.533 62.8941,-134.381"/>
</g>
<!-- Document_1&#45;&gt;NodeA_1 -->
<g id="edge2" class="edge"><title>Document_1&#45;&gt;NodeA_1</title>
<path fill="none" stroke="blue" d="M119.713,-159.697C123.916,-151.474 129.852,-141.483 135.864,-132.421"/>
<polygon fill="blue" stroke="blue" points="138.803,-134.324 141.598,-124.104 133.04,-130.351 138.803,-134.324"/>
</g>
<!-- Document_1&#45;&gt;NodeD_1 -->
<g id="edge5" class="edge"><title>Document_1&#45;&gt;NodeD_1</title>
<path fill="none" stroke="blue" d="M96.4775,-159.697C89.7092,-151.559 82.3123,-141.689 76.1916,-132.701"/>
<polygon fill="blue" stroke="blue" points="78.9706,-130.556 70.5667,-124.104 73.113,-134.389 78.9706,-130.556"/>
</g>
<!-- NodeA_1&#45;&gt;NodeB_1 -->
<g id="edge3" class="edge"><title>NodeA_1&#45;&gt;NodeB_1</title>
<path fill="none" stroke="blue" d="M146.382,-87.6966C140.861,-79.4741 134.153,-69.4832 128.068,-60.4207"/>
<polygon fill="blue" stroke="blue" points="130.965,-58.4555 122.484,-52.1043 125.153,-62.3576 130.965,-58.4555"/>
</g>
<!-- NodeA_1&#45;&gt;NodeC_1 -->
<g id="edge4" class="edge"><title>NodeA_1&#45;&gt;NodeC_1</title>
<path fill="none" stroke="blue" d="M167.888,-87.6966C172.489,-79.6436 178.06,-69.8945 183.153,-60.9824"/>
<polygon fill="blue" stroke="blue" points="186.304,-62.5233 188.226,-52.1043 180.226,-59.0503 186.304,-62.5233"/>
</g>
<!-- NodeA_1&#45;&gt;Document_1 -->
<g id="edge6" class="edge"><title>NodeA_1&#45;&gt;Document_1</title>
<path fill="none" stroke="blue" d="M153.388,-124.104C149.213,-132.298 143.292,-142.282 137.281,-151.359"/>
<polygon fill="blue" stroke="blue" points="134.33,-149.474 131.545,-159.697 140.097,-153.442 134.33,-149.474"/>
</g>
<!-- NodeB_1&#45;&gt;Document_1 -->
<g id="edge7" class="edge"><title>NodeB_1&#45;&gt;Document_1</title>
<path fill="none" stroke="blue" d="M111.484,-52.1893C112.167,-76.4244 113.419,-120.888 114.23,-149.679"/>
<polygon fill="blue" stroke="blue" points="110.737,-149.974 114.518,-159.871 117.734,-149.777 110.737,-149.974"/>
</g>
<!-- NodeC_1&#45;&gt;Document_1 -->
<g id="edge8" class="edge"><title>NodeC_1&#45;&gt;Document_1</title>
<path fill="none" stroke="blue" d="M201.85,-52.3017C205.095,-71.1972 207.446,-101.733 195,-124 187.265,-137.838 174.227,-148.712 160.897,-156.913"/>
<polygon fill="blue" stroke="blue" points="159.089,-153.915 152.148,-161.92 162.566,-159.99 159.089,-153.915"/>
</g>
<!-- NodeD_1&#45;&gt;Document_1 -->
<g id="edge9" class="edge"><title>NodeD_1&#45;&gt;Document_1</title>
<path fill="none" stroke="blue" d="M82.3568,-124.104C89.1147,-132.214 96.5167,-142.076 102.658,-151.078"/>
<polygon fill="blue" stroke="blue" points="99.8988,-153.253 108.309,-159.697 105.753,-149.415 99.8988,-153.253"/>
</g>
<!-- Object_2 -->
<g id="node8" class="node"><title>Object_2</title>
<polygon fill="none" stroke="lightgrey" points="324,-268 270,-268 270,-232 324,-232 324,-268"/>
<text text-anchor="middle" x="297" y="-246.3" font-family="Times,serif" font-size="14.00">Object</text>
</g>
<!-- Document_2 -->
<g id="node10" class="node"><title>Document_2</title>
<polygon fill="none" stroke="black" points="386,-196 312,-196 312,-160 386,-160 386,-196"/>
<text text-anchor="middle" x="349" y="-174.3" font-family="Times,serif" font-size="14.00">Document</text>
</g>
<!-- Object_2&#45;&gt;Document_2 -->
<g id="edge15" class="edge"><title>Object_2&#45;&gt;Document_2</title>
<path fill="none" stroke="lightgrey" d="M309.854,-231.697C316.025,-223.389 323.537,-213.277 330.324,-204.141"/>
<polygon fill="lightgrey" stroke="lightgrey" points="333.14,-206.219 336.294,-196.104 327.521,-202.045 333.14,-206.219"/>
</g>
<!-- X_2 -->
<g id="node9" class="node"><title>X_2</title>
<polygon fill="none" stroke="red" points="428,-268 342,-268 342,-232 428,-232 428,-268"/>
<text text-anchor="middle" x="385" y="-246.3" font-family="Times,serif" font-size="14.00">Handle table</text>
</g>
<!-- X_2&#45;&gt;Document_2 -->
<g id="edge24" class="edge"><title>X_2&#45;&gt;Document_2</title>
<path fill="none" stroke="red" d="M376.101,-231.697C372.003,-223.728 367.051,-214.1 362.507,-205.264"/>
<polygon fill="red" stroke="red" points="365.483,-203.396 357.797,-196.104 359.258,-206.598 365.483,-203.396"/>
</g>
<!-- NodeA_2 -->
<g id="node11" class="node"><title>NodeA_2</title>
<polygon fill="none" stroke="black" points="420,-124 364,-124 364,-88 420,-88 420,-124"/>
<text text-anchor="middle" x="392" y="-102.3" font-family="Times,serif" font-size="14.00">NodeA</text>
</g>
<!-- X_2&#45;&gt;NodeA_2 -->
<g id="edge25" class="edge"><title>X_2&#45;&gt;NodeA_2</title>
<path fill="none" stroke="red" d="M389.059,-231.929C391.306,-221.598 393.867,-208.12 395,-196 396.931,-175.349 396.014,-151.901 394.704,-134.258"/>
<polygon fill="red" stroke="red" points="398.176,-133.776 393.86,-124.1 391.2,-134.356 398.176,-133.776"/>
</g>
<!-- NodeB_2 -->
<g id="node12" class="node"><title>NodeB_2</title>
<polygon fill="none" stroke="black" points="372.25,-52 317.75,-52 317.75,-16 372.25,-16 372.25,-52"/>
<text text-anchor="middle" x="345" y="-30.3" font-family="Times,serif" font-size="14.00">NodeB</text>
</g>
<!-- X_2&#45;&gt;NodeB_2 -->
<g id="edge26" class="edge"><title>X_2&#45;&gt;NodeB_2</title>
<path fill="none" stroke="red" d="M341.916,-232.62C323.918,-223.997 303.986,-211.869 290,-196 267.19,-170.119 267.564,-157.868 261,-124 257.955,-108.292 253.274,-102.011 261,-88 271.117,-69.6538 290.552,-56.7837 308.182,-48.3242"/>
<polygon fill="red" stroke="red" points="310.011,-51.3406 317.719,-44.0715 307.161,-44.9473 310.011,-51.3406"/>
</g>
<!-- NodeC_2 -->
<g id="node13" class="node"><title>NodeC_2</title>
<polygon fill="none" stroke="black" points="459.25,-52 404.75,-52 404.75,-16 459.25,-16 459.25,-52"/>
<text text-anchor="middle" x="432" y="-30.3" font-family="Times,serif" font-size="14.00">NodeC</text>
</g>
<!-- X_2&#45;&gt;NodeC_2 -->
<g id="edge27" class="edge"><title>X_2&#45;&gt;NodeC_2</title>
<path fill="none" stroke="red" d="M395.056,-231.945C408.211,-208.547 430.575,-164.744 439,-124 443.23,-103.542 441.065,-79.9539 438.067,-62.2036"/>
<polygon fill="red" stroke="red" points="441.481,-61.4226 436.195,-52.241 434.602,-62.7154 441.481,-61.4226"/>
</g>
<!-- NodeD_2 -->
<g id="node14" class="node"><title>NodeD_2</title>
<polygon fill="none" stroke="black" points="326,-124 270,-124 270,-88 326,-88 326,-124"/>
<text text-anchor="middle" x="298" y="-102.3" font-family="Times,serif" font-size="14.00">NodeD</text>
</g>
<!-- X_2&#45;&gt;NodeD_2 -->
<g id="edge28" class="edge"><title>X_2&#45;&gt;NodeD_2</title>
<path fill="none" stroke="red" d="M343.264,-231.973C327.936,-223.512 312.115,-211.681 303,-196 292.157,-177.347 291.641,-152.615 293.42,-133.958"/>
<polygon fill="red" stroke="red" points="296.894,-134.381 294.632,-124.031 289.946,-133.533 296.894,-134.381"/>
</g>
<!-- Document_2&#45;&gt;NodeA_2 -->
<g id="edge16" class="edge"><title>Document_2&#45;&gt;NodeA_2</title>
<path fill="none" stroke="blue" d="M353.713,-159.697C357.916,-151.474 363.852,-141.483 369.864,-132.421"/>
<polygon fill="blue" stroke="blue" points="372.803,-134.324 375.598,-124.104 367.04,-130.351 372.803,-134.324"/>
</g>
<!-- Document_2&#45;&gt;NodeD_2 -->
<g id="edge19" class="edge"><title>Document_2&#45;&gt;NodeD_2</title>
<path fill="none" stroke="blue" d="M330.478,-159.697C323.709,-151.559 316.312,-141.689 310.192,-132.701"/>
<polygon fill="blue" stroke="blue" points="312.971,-130.556 304.567,-124.104 307.113,-134.389 312.971,-130.556"/>
</g>
<!-- NodeA_2&#45;&gt;NodeB_2 -->
<g id="edge17" class="edge"><title>NodeA_2&#45;&gt;NodeB_2</title>
<path fill="none" stroke="blue" d="M380.382,-87.6966C374.861,-79.4741 368.153,-69.4832 362.068,-60.4207"/>
<polygon fill="blue" stroke="blue" points="364.965,-58.4555 356.484,-52.1043 359.153,-62.3576 364.965,-58.4555"/>
</g>
<!-- NodeA_2&#45;&gt;NodeC_2 -->
<g id="edge18" class="edge"><title>NodeA_2&#45;&gt;NodeC_2</title>
<path fill="none" stroke="blue" d="M401.888,-87.6966C406.489,-79.6436 412.06,-69.8945 417.153,-60.9824"/>
<polygon fill="blue" stroke="blue" points="420.304,-62.5233 422.226,-52.1043 414.226,-59.0503 420.304,-62.5233"/>
</g>
<!-- NodeA_2&#45;&gt;Document_2 -->
<g id="edge20" class="edge"><title>NodeA_2&#45;&gt;Document_2</title>
<path fill="none" stroke="blue" d="M387.388,-124.104C383.213,-132.298 377.292,-142.282 371.281,-151.359"/>
<polygon fill="blue" stroke="blue" points="368.33,-149.474 365.545,-159.697 374.097,-153.442 368.33,-149.474"/>
</g>
<!-- NodeB_2&#45;&gt;Document_2 -->
<g id="edge21" class="edge"><title>NodeB_2&#45;&gt;Document_2</title>
<path fill="none" stroke="blue" d="M345.484,-52.1893C346.167,-76.4244 347.419,-120.888 348.23,-149.679"/>
<polygon fill="blue" stroke="blue" points="344.737,-149.974 348.518,-159.871 351.734,-149.777 344.737,-149.974"/>
</g>
<!-- NodeC_2&#45;&gt;Document_2 -->
<g id="edge22" class="edge"><title>NodeC_2&#45;&gt;Document_2</title>
<path fill="none" stroke="blue" d="M435.85,-52.3017C439.095,-71.1972 441.446,-101.733 429,-124 421.265,-137.838 408.227,-148.712 394.897,-156.913"/>
<polygon fill="blue" stroke="blue" points="393.089,-153.915 386.148,-161.92 396.566,-159.99 393.089,-153.915"/>
</g>
<!-- NodeD_2&#45;&gt;Document_2 -->
<g id="edge23" class="edge"><title>NodeD_2&#45;&gt;Document_2</title>
<path fill="none" stroke="blue" d="M316.357,-124.104C323.115,-132.214 330.517,-142.076 336.658,-151.078"/>
<polygon fill="blue" stroke="blue" points="333.899,-153.253 342.309,-159.697 339.753,-149.415 333.899,-153.253"/>
</g>
<!-- Object_3 -->
<g id="node15" class="node"><title>Object_3</title>
<polygon fill="none" stroke="lightgrey" points="558,-268 504,-268 504,-232 558,-232 558,-268"/>
<text text-anchor="middle" x="531" y="-246.3" font-family="Times,serif" font-size="14.00">Object</text>
</g>
<!-- Document_3 -->
<g id="node17" class="node"><title>Document_3</title>
<polygon fill="none" stroke="black" points="620,-196 546,-196 546,-160 620,-160 620,-196"/>
<text text-anchor="middle" x="583" y="-174.3" font-family="Times,serif" font-size="14.00">Document</text>
</g>
<!-- Object_3&#45;&gt;Document_3 -->
<g id="edge29" class="edge"><title>Object_3&#45;&gt;Document_3</title>
<path fill="none" stroke="lightgrey" d="M543.854,-231.697C550.025,-223.389 557.537,-213.277 564.324,-204.141"/>
<polygon fill="lightgrey" stroke="lightgrey" points="567.14,-206.219 570.294,-196.104 561.521,-202.045 567.14,-206.219"/>
</g>
<!-- X_3 -->
<g id="node16" class="node"><title>X_3</title>
<polygon fill="none" stroke="red" points="662,-268 576,-268 576,-232 662,-232 662,-268"/>
<text text-anchor="middle" x="619" y="-246.3" font-family="Times,serif" font-size="14.00">Handle table</text>
</g>
<!-- X_3&#45;&gt;Document_3 -->
<g id="edge38" class="edge"><title>X_3&#45;&gt;Document_3</title>
<path fill="none" stroke="red" d="M610.101,-231.697C606.003,-223.728 601.051,-214.1 596.507,-205.264"/>
<polygon fill="red" stroke="red" points="599.483,-203.396 591.797,-196.104 593.258,-206.598 599.483,-203.396"/>
</g>
<!-- NodeA_3 -->
<g id="node18" class="node"><title>NodeA_3</title>
<polygon fill="none" stroke="black" points="654,-124 598,-124 598,-88 654,-88 654,-124"/>
<text text-anchor="middle" x="626" y="-102.3" font-family="Times,serif" font-size="14.00">NodeA</text>
</g>
<!-- X_3&#45;&gt;NodeA_3 -->
<g id="edge39" class="edge"><title>X_3&#45;&gt;NodeA_3</title>
<path fill="none" stroke="red" d="M623.059,-231.929C625.306,-221.598 627.867,-208.12 629,-196 630.931,-175.349 630.014,-151.901 628.704,-134.258"/>
<polygon fill="red" stroke="red" points="632.176,-133.776 627.86,-124.1 625.2,-134.356 632.176,-133.776"/>
</g>
<!-- NodeB_3 -->
<g id="node19" class="node"><title>NodeB_3</title>
<polygon fill="none" stroke="black" points="606.25,-52 551.75,-52 551.75,-16 606.25,-16 606.25,-52"/>
<text text-anchor="middle" x="579" y="-30.3" font-family="Times,serif" font-size="14.00">NodeB</text>
</g>
<!-- X_3&#45;&gt;NodeB_3 -->
<g id="edge40" class="edge"><title>X_3&#45;&gt;NodeB_3</title>
<path fill="none" stroke="red" d="M575.916,-232.62C557.918,-223.997 537.986,-211.869 524,-196 501.19,-170.119 501.564,-157.868 495,-124 491.955,-108.292 487.274,-102.011 495,-88 505.117,-69.6538 524.552,-56.7837 542.182,-48.3242"/>
<polygon fill="red" stroke="red" points="544.011,-51.3406 551.719,-44.0715 541.161,-44.9473 544.011,-51.3406"/>
</g>
<!-- NodeC_3 -->
<g id="node20" class="node"><title>NodeC_3</title>
<polygon fill="none" stroke="black" points="693.25,-52 638.75,-52 638.75,-16 693.25,-16 693.25,-52"/>
<text text-anchor="middle" x="666" y="-30.3" font-family="Times,serif" font-size="14.00">NodeC</text>
</g>
<!-- X_3&#45;&gt;NodeC_3 -->
<g id="edge41" class="edge"><title>X_3&#45;&gt;NodeC_3</title>
<path fill="none" stroke="red" d="M628.872,-231.919C641.785,-208.491 663.737,-164.655 672,-124 676.158,-103.544 674.274,-79.9563 671.558,-62.2053"/>
<polygon fill="red" stroke="red" points="674.99,-61.5091 669.854,-52.2422 668.09,-62.6891 674.99,-61.5091"/>
</g>
<!-- NodeD_3 -->
<g id="node21" class="node"><title>NodeD_3</title>
<polygon fill="none" stroke="black" points="560,-124 504,-124 504,-88 560,-88 560,-124"/>
<text text-anchor="middle" x="532" y="-102.3" font-family="Times,serif" font-size="14.00">NodeD</text>
</g>
<!-- X_3&#45;&gt;NodeD_3 -->
<g id="edge42" class="edge"><title>X_3&#45;&gt;NodeD_3</title>
<path fill="none" stroke="red" d="M577.264,-231.973C561.936,-223.512 546.115,-211.681 537,-196 526.157,-177.347 525.641,-152.615 527.42,-133.958"/>
<polygon fill="red" stroke="red" points="530.894,-134.381 528.632,-124.031 523.946,-133.533 530.894,-134.381"/>
</g>
<!-- Document_3&#45;&gt;NodeA_3 -->
<g id="edge30" class="edge"><title>Document_3&#45;&gt;NodeA_3</title>
<path fill="none" stroke="blue" d="M587.713,-159.697C591.916,-151.474 597.852,-141.483 603.864,-132.421"/>
<polygon fill="blue" stroke="blue" points="606.803,-134.324 609.598,-124.104 601.04,-130.351 606.803,-134.324"/>
</g>
<!-- Document_3&#45;&gt;NodeD_3 -->
<g id="edge33" class="edge"><title>Document_3&#45;&gt;NodeD_3</title>
<path fill="none" stroke="blue" d="M564.478,-159.697C557.709,-151.559 550.312,-141.689 544.192,-132.701"/>
<polygon fill="blue" stroke="blue" points="546.971,-130.556 538.567,-124.104 541.113,-134.389 546.971,-130.556"/>
</g>
<!-- NodeA_3&#45;&gt;NodeB_3 -->
<g id="edge31" class="edge"><title>NodeA_3&#45;&gt;NodeB_3</title>
<path fill="none" stroke="blue" d="M614.382,-87.6966C608.861,-79.4741 602.153,-69.4832 596.068,-60.4207"/>
<polygon fill="blue" stroke="blue" points="598.965,-58.4555 590.484,-52.1043 593.153,-62.3576 598.965,-58.4555"/>
</g>
<!-- NodeA_3&#45;&gt;NodeC_3 -->
<g id="edge32" class="edge"><title>NodeA_3&#45;&gt;NodeC_3</title>
<path fill="none" stroke="blue" d="M635.888,-87.6966C640.489,-79.6436 646.06,-69.8945 651.153,-60.9824"/>
<polygon fill="blue" stroke="blue" points="654.304,-62.5233 656.226,-52.1043 648.226,-59.0503 654.304,-62.5233"/>
</g>
<!-- NodeA_3&#45;&gt;Document_3 -->
<g id="edge34" class="edge"><title>NodeA_3&#45;&gt;Document_3</title>
<path fill="none" stroke="blue" d="M621.388,-124.104C617.213,-132.298 611.292,-142.282 605.281,-151.359"/>
<polygon fill="blue" stroke="blue" points="602.33,-149.474 599.545,-159.697 608.097,-153.442 602.33,-149.474"/>
</g>
<!-- NodeB_3&#45;&gt;Document_3 -->
<g id="edge35" class="edge"><title>NodeB_3&#45;&gt;Document_3</title>
<path fill="none" stroke="blue" d="M579.484,-52.1893C580.167,-76.4244 581.419,-120.888 582.23,-149.679"/>
<polygon fill="blue" stroke="blue" points="578.737,-149.974 582.518,-159.871 585.734,-149.777 578.737,-149.974"/>
</g>
<!-- NodeC_3&#45;&gt;Document_3 -->
<g id="edge36" class="edge"><title>NodeC_3&#45;&gt;Document_3</title>
<path fill="none" stroke="blue" d="M669.85,-52.3017C673.095,-71.1972 675.446,-101.733 663,-124 655.265,-137.838 642.227,-148.712 628.897,-156.913"/>
<polygon fill="blue" stroke="blue" points="627.089,-153.915 620.148,-161.92 630.566,-159.99 627.089,-153.915"/>
</g>
<!-- NodeD_3&#45;&gt;Document_3 -->
<g id="edge37" class="edge"><title>NodeD_3&#45;&gt;Document_3</title>
<path fill="none" stroke="blue" d="M550.357,-124.104C557.115,-132.214 564.517,-142.076 570.658,-151.078"/>
<polygon fill="blue" stroke="blue" points="567.899,-153.253 576.309,-159.697 573.753,-149.415 567.899,-153.253"/>
</g>
</g>
</svg>
