<?xml version="1.0" encoding="UTF-8" standalone="no"?>
<!DOCTYPE svg PUBLIC "-//W3C//DTD SVG 1.1//EN"
 "http://www.w3.org/Graphics/SVG/1.1/DTD/svg11.dtd">
<!-- Generated by graphviz version 2.30.1 (20180223.0356)
 -->
<!-- Title: D Pages: 1 -->
<svg width="298pt" height="98pt"
 viewBox="0.00 0.00 298.00 98.00" xmlns="http://www.w3.org/2000/svg" xmlns:xlink="http://www.w3.org/1999/xlink">
<g id="graph0" class="graph" transform="scale(1 1) rotate(0) translate(4 94)">
<title>D</title>
<polygon fill="white" stroke="white" points="-4,5 -4,-94 295,-94 295,5 -4,5"/>
<!-- X -->
<g id="node1" class="node"><title>X</title>
<polygon fill="none" stroke="red" points="109.5,-36 0.5,-36 0.5,-0 109.5,-0 109.5,-36"/>
<text text-anchor="middle" x="55" y="-14.3" font-family="Times,serif" font-size="14.00">Handle table</text>
</g>
<!-- B -->
<g id="node3" class="node"><title>B</title>
<polygon fill="none" stroke="black" points="200,-82 146,-82 146,-46 200,-46 200,-82"/>
<text text-anchor="middle" x="173" y="-60.3" font-family="Times,serif" font-size="14.00">B</text>
</g>
<!-- X&#45;&gt;B -->
<g id="edge3" class="edge"><title>X&#45;&gt;B</title>
<path fill="none" stroke="red" d="M101.513,-36.0484C113.099,-40.6427 125.383,-45.5138 136.394,-49.8804"/>
<polygon fill="red" stroke="red" points="135.108,-53.1354 145.694,-53.5682 137.688,-46.6283 135.108,-53.1354"/>
</g>
<!-- C -->
<g id="node4" class="node"><title>C</title>
<polygon fill="none" stroke="black" points="290,-59 236,-59 236,-23 290,-23 290,-59"/>
<text text-anchor="middle" x="263" y="-37.3" font-family="Times,serif" font-size="14.00">C</text>
</g>
<!-- X&#45;&gt;C -->
<g id="edge4" class="edge"><title>X&#45;&gt;C</title>
<path fill="none" stroke="red" d="M109.586,-23.9829C146.109,-28.0607 193.495,-33.3514 225.667,-36.9434"/>
<polygon fill="red" stroke="red" points="225.63,-40.4609 235.956,-38.0922 226.407,-33.5041 225.63,-40.4609"/>
</g>
<!-- A -->
<g id="node2" class="node"><title>A</title>
<polygon fill="none" stroke="red" points="82,-90 28,-90 28,-54 82,-54 82,-90"/>
<text text-anchor="middle" x="55" y="-68.3" font-family="Times,serif" font-size="14.00">A</text>
</g>
<!-- A&#45;&gt;B -->
<g id="edge1" class="edge"><title>A&#45;&gt;B</title>
<path fill="none" stroke="blue" d="M82.0327,-70.2046C97.7428,-69.1212 118.003,-67.7239 135.319,-66.5297"/>
<polygon fill="blue" stroke="blue" points="135.917,-69.9969 145.653,-65.817 135.436,-63.0134 135.917,-69.9969"/>
</g>
<!-- B&#45;&gt;C -->
<g id="edge2" class="edge"><title>B&#45;&gt;C</title>
<path fill="none" stroke="blue" d="M200.403,-57.0992C208.481,-54.9879 217.507,-52.6289 226.105,-50.3818"/>
<polygon fill="blue" stroke="blue" points="227.129,-53.7316 235.919,-47.8166 225.359,-46.9591 227.129,-53.7316"/>
</g>
</g>
</svg>
