<?xml version="1.0" encoding="UTF-8" standalone="no"?>
<!DOCTYPE svg PUBLIC "-//W3C//DTD SVG 1.1//EN"
 "http://www.w3.org/Graphics/SVG/1.1/DTD/svg11.dtd">
<!-- Generated by graphviz version 2.30.1 (20180223.0356)
 -->
<!-- Title: D Pages: 1 -->
<svg width="750pt" height="387pt"
 viewBox="0.00 0.00 750.00 387.00" xmlns="http://www.w3.org/2000/svg" xmlns:xlink="http://www.w3.org/1999/xlink">
<g id="graph0" class="graph" transform="scale(1 1) rotate(0) translate(4 383)">
<title>D</title>
<polygon fill="white" stroke="white" points="-4,5 -4,-383 747,-383 747,5 -4,5"/>
<g id="clust1" class="cluster"><title>cluster_before</title>
<polygon fill="none" stroke="black" points="8,-152 8,-371 314,-371 314,-152 8,-152"/>
<text text-anchor="middle" x="161" y="-355.8" font-family="Times,serif" font-size="14.00">Before GC</text>
</g>
<g id="clust2" class="cluster"><title>cluster_mark_full</title>
<polygon fill="none" stroke="black" points="322,-8 322,-371 524,-371 524,-8 322,-8"/>
<text text-anchor="middle" x="423" y="-355.8" font-family="Times,serif" font-size="14.00">Preservation table full</text>
</g>
<g id="clust3" class="cluster"><title>cluster_gc_1</title>
<polygon fill="none" stroke="black" points="532,-8 532,-371 734,-371 734,-8 532,-8"/>
<text text-anchor="middle" x="633" y="-355.8" font-family="Times,serif" font-size="14.00">Collect A</text>
</g>
<!-- X_1 -->
<g id="node1" class="node"><title>X_1</title>
<polygon fill="none" stroke="red" points="306,-340 220,-340 220,-304 306,-304 306,-340"/>
<text text-anchor="middle" x="263" y="-318.3" font-family="Times,serif" font-size="14.00">Handle table</text>
</g>
<!-- B_1 -->
<g id="node4" class="node"><title>B_1</title>
<polygon fill="none" stroke="black" points="202,-268 148,-268 148,-232 202,-232 202,-268"/>
<text text-anchor="middle" x="175" y="-246.3" font-family="Times,serif" font-size="14.00">B</text>
</g>
<!-- X_1&#45;&gt;B_1 -->
<g id="edge3" class="edge"><title>X_1&#45;&gt;B_1</title>
<path fill="none" stroke="blue" d="M241.247,-303.697C230.164,-294.881 216.526,-284.032 204.51,-274.474"/>
<polygon fill="blue" stroke="blue" points="206.507,-271.59 196.503,-268.104 202.15,-277.069 206.507,-271.59"/>
</g>
<!-- C_1 -->
<g id="node5" class="node"><title>C_1</title>
<polygon fill="none" stroke="black" points="202,-196 148,-196 148,-160 202,-160 202,-196"/>
<text text-anchor="middle" x="175" y="-174.3" font-family="Times,serif" font-size="14.00">C</text>
</g>
<!-- X_1&#45;&gt;C_1 -->
<g id="edge4" class="edge"><title>X_1&#45;&gt;C_1</title>
<path fill="none" stroke="blue" d="M253.371,-303.732C243.181,-285.647 226.466,-256.52 211,-232 205.363,-223.062 198.952,-213.459 193.118,-204.916"/>
<polygon fill="blue" stroke="blue" points="195.856,-202.721 187.303,-196.468 190.09,-206.69 195.856,-202.721"/>
</g>
<!-- Y_1 -->
<g id="node2" class="node"><title>Y_1</title>
<polygon fill="none" stroke="red" points="130,-340 16,-340 16,-304 130,-304 130,-340"/>
<text text-anchor="middle" x="73" y="-318.3" font-family="Times,serif" font-size="14.00">Preservation table</text>
</g>
<!-- Y_1&#45;&gt;B_1 -->
<g id="edge5" class="edge"><title>Y_1&#45;&gt;B_1</title>
<path fill="none" stroke="red" d="M97.952,-303.876C111.042,-294.893 127.26,-283.763 141.436,-274.034"/>
<polygon fill="red" stroke="red" points="143.687,-276.734 149.952,-268.19 139.726,-270.962 143.687,-276.734"/>
</g>
<!-- Y_1&#45;&gt;C_1 -->
<g id="edge6" class="edge"><title>Y_1&#45;&gt;C_1</title>
<path fill="none" stroke="red" d="M85.3036,-303.871C103.07,-279.137 136.037,-233.242 156.674,-204.512"/>
<polygon fill="red" stroke="red" points="159.661,-206.353 162.653,-196.189 153.976,-202.269 159.661,-206.353"/>
</g>
<!-- A_1 -->
<g id="node3" class="node"><title>A_1</title>
<polygon fill="none" stroke="red" points="202,-340 148,-340 148,-304 202,-304 202,-340"/>
<text text-anchor="middle" x="175" y="-318.3" font-family="Times,serif" font-size="14.00">A</text>
</g>
<!-- A_1&#45;&gt;B_1 -->
<g id="edge1" class="edge"><title>A_1&#45;&gt;B_1</title>
<path fill="none" stroke="blue" d="M175,-303.697C175,-295.983 175,-286.712 175,-278.112"/>
<polygon fill="blue" stroke="blue" points="178.5,-278.104 175,-268.104 171.5,-278.104 178.5,-278.104"/>
</g>
<!-- B_1&#45;&gt;C_1 -->
<g id="edge2" class="edge"><title>B_1&#45;&gt;C_1</title>
<path fill="none" stroke="blue" d="M175,-231.697C175,-223.983 175,-214.712 175,-206.112"/>
<polygon fill="blue" stroke="blue" points="178.5,-206.104 175,-196.104 171.5,-206.104 178.5,-206.104"/>
</g>
<!-- X_2 -->
<g id="node6" class="node"><title>X_2</title>
<polygon fill="none" stroke="red" points="514,-268 428,-268 428,-232 514,-232 514,-268"/>
<text text-anchor="middle" x="471" y="-246.3" font-family="Times,serif" font-size="14.00">Handle table</text>
</g>
<!-- B_2 -->
<g id="node10" class="node"><title>B_2</title>
<polygon fill="none" stroke="black" points="436,-196 382,-196 382,-160 436,-160 436,-196"/>
<text text-anchor="middle" x="409" y="-174.3" font-family="Times,serif" font-size="14.00">B</text>
</g>
<!-- X_2&#45;&gt;B_2 -->
<g id="edge11" class="edge"><title>X_2&#45;&gt;B_2</title>
<path fill="none" stroke="blue" d="M455.674,-231.697C448.241,-223.305 439.177,-213.07 431.02,-203.861"/>
<polygon fill="blue" stroke="blue" points="433.4,-201.27 424.15,-196.104 428.16,-205.911 433.4,-201.27"/>
</g>
<!-- C_2 -->
<g id="node12" class="node"><title>C_2</title>
<polygon fill="none" stroke="black" points="478,-52 424,-52 424,-16 478,-16 478,-52"/>
<text text-anchor="middle" x="451" y="-30.3" font-family="Times,serif" font-size="14.00">C</text>
</g>
<!-- X_2&#45;&gt;C_2 -->
<g id="edge12" class="edge"><title>X_2&#45;&gt;C_2</title>
<path fill="none" stroke="blue" d="M469.397,-231.849C465.938,-194.832 457.746,-107.181 453.559,-62.3863"/>
<polygon fill="blue" stroke="blue" points="457.026,-61.8633 452.611,-52.2325 450.056,-62.5148 457.026,-61.8633"/>
</g>
<!-- Y_2 -->
<g id="node7" class="node"><title>Y_2</title>
<polygon fill="none" stroke="red" points="516,-340 402,-340 402,-304 516,-304 516,-340"/>
<text text-anchor="middle" x="459" y="-318.3" font-family="Times,serif" font-size="14.00">Preservation table</text>
</g>
<!-- A_2 -->
<g id="node8" class="node"><title>A_2</title>
<polygon fill="none" stroke="red" points="384,-340 330,-340 330,-304 384,-304 384,-340"/>
<text text-anchor="middle" x="357" y="-318.3" font-family="Times,serif" font-size="14.00">A</text>
</g>
<!-- A_mark_2 -->
<g id="node9" class="node"><title>A_mark_2</title>
<polygon fill="none" stroke="black" points="389.25,-268 330.75,-268 330.75,-232 389.25,-232 389.25,-268"/>
<text text-anchor="middle" x="360" y="-246.3" font-family="Times,serif" font-size="14.00">A mark</text>
</g>
<!-- A_2&#45;&gt;A_mark_2 -->
<g id="edge7" class="edge"><title>A_2&#45;&gt;A_mark_2</title>
<path fill="none" stroke="red" d="M357.742,-303.697C358.072,-295.983 358.469,-286.712 358.838,-278.112"/>
<polygon fill="red" stroke="red" points="362.335,-278.245 359.267,-268.104 355.342,-277.945 362.335,-278.245"/>
</g>
<!-- A_2&#45;&gt;B_2 -->
<g id="edge9" class="edge"><title>A_2&#45;&gt;B_2</title>
<path fill="none" stroke="blue" d="M374.079,-303.897C382.715,-294.19 392.506,-281.338 398,-268 406.091,-248.357 408.681,-224.368 409.337,-206.247"/>
<polygon fill="blue" stroke="blue" points="412.84,-206.138 409.527,-196.074 405.841,-206.007 412.84,-206.138"/>
</g>
<!-- A_mark_2&#45;&gt;B_2 -->
<g id="edge13" class="edge"><title>A_mark_2&#45;&gt;B_2</title>
<path fill="none" stroke="red" d="M372.112,-231.697C377.868,-223.474 384.862,-213.483 391.206,-204.421"/>
<polygon fill="red" stroke="red" points="394.16,-206.304 397.027,-196.104 388.425,-202.29 394.16,-206.304"/>
</g>
<!-- B_mark_2 -->
<g id="node11" class="node"><title>B_mark_2</title>
<polygon fill="none" stroke="black" points="432,-124 374,-124 374,-88 432,-88 432,-124"/>
<text text-anchor="middle" x="403" y="-102.3" font-family="Times,serif" font-size="14.00">B mark</text>
</g>
<!-- B_2&#45;&gt;B_mark_2 -->
<g id="edge8" class="edge"><title>B_2&#45;&gt;B_mark_2</title>
<path fill="none" stroke="red" d="M407.517,-159.697C406.856,-151.983 406.061,-142.712 405.324,-134.112"/>
<polygon fill="red" stroke="red" points="408.807,-133.769 404.466,-124.104 401.833,-134.367 408.807,-133.769"/>
</g>
<!-- B_2&#45;&gt;C_2 -->
<g id="edge10" class="edge"><title>B_2&#45;&gt;C_2</title>
<path fill="none" stroke="blue" d="M422.004,-159.799C428.823,-149.863 436.643,-136.823 441,-124 447.784,-104.034 450.187,-80.2442 450.946,-62.2859"/>
<polygon fill="blue" stroke="blue" points="454.447,-62.2959 451.228,-52.2021 447.45,-62.1005 454.447,-62.2959"/>
</g>
<!-- B_mark_2&#45;&gt;C_2 -->
<g id="edge14" class="edge"><title>B_mark_2&#45;&gt;C_2</title>
<path fill="none" stroke="red" d="M414.865,-87.6966C420.503,-79.4741 427.354,-69.4832 433.569,-60.4207"/>
<polygon fill="red" stroke="red" points="436.503,-62.331 439.271,-52.1043 430.729,-58.3723 436.503,-62.331"/>
</g>
<!-- X_3 -->
<g id="node13" class="node"><title>X_3</title>
<polygon fill="none" stroke="red" points="724,-268 638,-268 638,-232 724,-232 724,-268"/>
<text text-anchor="middle" x="681" y="-246.3" font-family="Times,serif" font-size="14.00">Handle table</text>
</g>
<!-- B_3 -->
<g id="node17" class="node"><title>B_3</title>
<polygon fill="none" stroke="black" points="646,-196 592,-196 592,-160 646,-160 646,-196"/>
<text text-anchor="middle" x="619" y="-174.3" font-family="Times,serif" font-size="14.00">B</text>
</g>
<!-- X_3&#45;&gt;B_3 -->
<g id="edge19" class="edge"><title>X_3&#45;&gt;B_3</title>
<path fill="none" stroke="blue" d="M665.674,-231.697C658.241,-223.305 649.177,-213.07 641.02,-203.861"/>
<polygon fill="blue" stroke="blue" points="643.4,-201.27 634.15,-196.104 638.16,-205.911 643.4,-201.27"/>
</g>
<!-- C_3 -->
<g id="node19" class="node"><title>C_3</title>
<polygon fill="none" stroke="black" points="688,-52 634,-52 634,-16 688,-16 688,-52"/>
<text text-anchor="middle" x="661" y="-30.3" font-family="Times,serif" font-size="14.00">C</text>
</g>
<!-- X_3&#45;&gt;C_3 -->
<g id="edge20" class="edge"><title>X_3&#45;&gt;C_3</title>
<path fill="none" stroke="blue" d="M679.397,-231.849C675.938,-194.832 667.746,-107.181 663.559,-62.3863"/>
<polygon fill="blue" stroke="blue" points="667.026,-61.8633 662.611,-52.2325 660.056,-62.5148 667.026,-61.8633"/>
</g>
<!-- Y_3 -->
<g id="node14" class="node"><title>Y_3</title>
<polygon fill="none" stroke="red" points="726,-340 612,-340 612,-304 726,-304 726,-340"/>
<text text-anchor="middle" x="669" y="-318.3" font-family="Times,serif" font-size="14.00">Preservation table</text>
</g>
<!-- A_3 -->
<g id="node15" class="node"><title>A_3</title>
<polygon fill="none" stroke="lightgrey" points="594,-340 540,-340 540,-304 594,-304 594,-340"/>
<text text-anchor="middle" x="567" y="-318.3" font-family="Times,serif" font-size="14.00">A</text>
</g>
<!-- A_mark_3 -->
<g id="node16" class="node"><title>A_mark_3</title>
<polygon fill="none" stroke="black" points="599.25,-268 540.75,-268 540.75,-232 599.25,-232 599.25,-268"/>
<text text-anchor="middle" x="570" y="-246.3" font-family="Times,serif" font-size="14.00">A mark</text>
</g>
<!-- A_3&#45;&gt;A_mark_3 -->
<g id="edge15" class="edge"><title>A_3&#45;&gt;A_mark_3</title>
<path fill="none" stroke="lightgrey" d="M567.742,-303.697C568.072,-295.983 568.469,-286.712 568.838,-278.112"/>
<polygon fill="lightgrey" stroke="lightgrey" points="572.335,-278.245 569.267,-268.104 565.342,-277.945 572.335,-278.245"/>
</g>
<!-- A_3&#45;&gt;B_3 -->
<g id="edge17" class="edge"><title>A_3&#45;&gt;B_3</title>
<path fill="none" stroke="lightgrey" d="M584.079,-303.897C592.715,-294.19 602.506,-281.338 608,-268 616.091,-248.357 618.681,-224.368 619.337,-206.247"/>
<polygon fill="lightgrey" stroke="lightgrey" points="622.84,-206.138 619.527,-196.074 615.841,-206.007 622.84,-206.138"/>
</g>
<!-- A_mark_3&#45;&gt;B_3 -->
<g id="edge21" class="edge"><title>A_mark_3&#45;&gt;B_3</title>
<path fill="none" stroke="red" d="M582.112,-231.697C587.868,-223.474 594.862,-213.483 601.206,-204.421"/>
<polygon fill="red" stroke="red" points="604.16,-206.304 607.027,-196.104 598.425,-202.29 604.16,-206.304"/>
</g>
<!-- B_mark_3 -->
<g id="node18" class="node"><title>B_mark_3</title>
<polygon fill="none" stroke="black" points="642,-124 584,-124 584,-88 642,-88 642,-124"/>
<text text-anchor="middle" x="613" y="-102.3" font-family="Times,serif" font-size="14.00">B mark</text>
</g>
<!-- B_3&#45;&gt;B_mark_3 -->
<g id="edge16" class="edge"><title>B_3&#45;&gt;B_mark_3</title>
<path fill="none" stroke="red" d="M617.517,-159.697C616.856,-151.983 616.061,-142.712 615.324,-134.112"/>
<polygon fill="red" stroke="red" points="618.807,-133.769 614.466,-124.104 611.833,-134.367 618.807,-133.769"/>
</g>
<!-- B_3&#45;&gt;C_3 -->
<g id="edge18" class="edge"><title>B_3&#45;&gt;C_3</title>
<path fill="none" stroke="blue" d="M632.004,-159.799C638.823,-149.863 646.643,-136.823 651,-124 657.784,-104.034 660.187,-80.2442 660.946,-62.2859"/>
<polygon fill="blue" stroke="blue" points="664.447,-62.2959 661.228,-52.2021 657.45,-62.1005 664.447,-62.2959"/>
</g>
<!-- B_mark_3&#45;&gt;C_3 -->
<g id="edge22" class="edge"><title>B_mark_3&#45;&gt;C_3</title>
<path fill="none" stroke="red" d="M624.865,-87.6966C630.503,-79.4741 637.354,-69.4832 643.569,-60.4207"/>
<polygon fill="red" stroke="red" points="646.503,-62.331 649.271,-52.1043 640.729,-58.3723 646.503,-62.331"/>
</g>
</g>
</svg>
